<svg width="23" height="9" viewBox="0 0 23 9" fill="none" xmlns="http://www.w3.org/2000/svg">
<path d="M22.16 4.80997L18.82 8.13997C18.7583 8.20169 18.685 8.25065 18.6044 8.28406C18.5237 8.31746 18.4373 8.33466 18.35 8.33466C18.2627 8.33466 18.1763 8.31746 18.0956 8.28406C18.015 8.25065 17.9417 8.20169 17.88 8.13997C17.8183 8.07825 17.7693 8.00497 17.7359 7.92433C17.7025 7.84369 17.6853 7.75725 17.6853 7.66997C17.6853 7.58268 17.7025 7.49625 17.7359 7.4156C17.7693 7.33496 17.8183 7.26169 17.88 7.19997L20.07 5.00996H0.679993C0.502298 5.00996 0.331887 4.93939 0.206238 4.81374C0.0805884 4.68809 0.0100098 4.51766 0.0100098 4.33997C0.0100098 4.16227 0.0805884 3.99186 0.206238 3.86621C0.331887 3.74056 0.502298 3.66997 0.679993 3.66997H20.08L17.88 1.47997C17.8109 1.41628 17.7558 1.33899 17.7181 1.25293C17.6804 1.16687 17.6609 1.07392 17.6609 0.979965C17.6609 0.886006 17.6804 0.793073 17.7181 0.707016C17.7558 0.620959 17.8109 0.543646 17.88 0.479965C17.9414 0.417681 18.0146 0.368231 18.0953 0.334473C18.176 0.300715 18.2625 0.283325 18.35 0.283325C18.4374 0.283325 18.5241 0.300715 18.6047 0.334473C18.6854 0.368231 18.7586 0.417681 18.82 0.479965L22.15 3.81998C22.2123 3.88138 22.2617 3.95455 22.2955 4.03523C22.3292 4.11592 22.3466 4.20252 22.3466 4.28998C22.3466 4.37744 22.3292 4.46402 22.2955 4.54471C22.2617 4.62539 22.2123 4.69856 22.15 4.75996L22.16 4.80997Z" fill="#939AA7"/>
</svg>
