<?xml version="1.0" encoding="UTF-8"?>
<svg xmlns="http://www.w3.org/2000/svg" viewBox="0 0 185.02 145">
  <defs>
    <style>
      .cls-1 {
        isolation: isolate;
      }

      .cls-2 {
        stroke: #f2ca70;
      }

      .cls-2, .cls-3 {
        fill: none;
        stroke-linecap: round;
        stroke-linejoin: round;
      }

      .cls-4 {
        fill: #e8563f;
      }

      .cls-3 {
        stroke: #001965;
      }

      .cls-5 {
        mix-blend-mode: multiply;
      }
    </style>
  </defs>
  <g class="cls-1">
    <g id="Layer_2" data-name="Layer 2">
      <g id="CONTENT">
        <g>
          <g>
            <g>
              <path class="cls-2" d="M15.22,48.5c-2.17,3.8-7.75,24.04-3.03,30.57-1.73,4.38,.26,13.54,3.81,30.09,1.14,5.33,2.22,10.37,2.76,14.13,.43,3.02,2.96,5.2,6.01,5.2,3.41,0,6.23-2.78,6.29-6.19l-.51-38.8c0-.83-.03-1.49,.83-1.48,.76,.01,.76,.57,.76,1.48l-.51,38.8c.06,3.41,2.88,6.19,6.29,6.19,3.06,0,5.41-2.22,6.01-5.2,4.09-20.31,9.97-34.66,6.57-44.23,4.72-6.54-.86-26.77-3.03-30.57"/>
              <path class="cls-2" d="M30.72,36.5c-5.52,0-8.09-5.47-8.19-10.89-.1-5.71,2.83-9.11,7.84-9.11s8.06,3.41,8.16,9.11c.1,5.42-2.28,10.89-7.81,10.89Z"/>
              <g>
                <path class="cls-2" d="M54.41,78.96c.22,2.38,.44,5.19,4.05,5.11,3.34-.08,4.05-2.07,4.04-3.81-.09-12.9-2.45-21.27-5.12-28.41-2.67-7.15-7.45-11.29-13.15-13.57-2.1-.84-6.34-1.91-9.36-2.21"/>
                <path class="cls-2" d="M8.59,78.96c-.22,2.38-.44,5.19-4.05,5.11-3.34-.08-4.05-2.07-4.04-3.81,.09-12.9,2.11-21.27,4.78-28.41s7.45-11.29,13.15-13.57c.94-.38,2.32-.8,3.83-1.18"/>
              </g>
            </g>
            <g>
              <path class="cls-2" d="M42.65,45.07c-2.48,4.34-8.86,27.47-3.46,34.94-1.98,5,.3,15.48,4.35,34.39,1.31,6.09,2.54,11.85,3.15,16.15,.49,3.45,3.38,5.95,6.87,5.95,3.9,0,7.12-3.17,7.19-7.07l-.58-44.35c-.01-.95-.03-1.71,.95-1.69,.87,.01,.87,.65,.87,1.69l-.58,44.35c.07,3.9,3.29,7.07,7.19,7.07,3.49,0,6.18-2.54,6.87-5.95,4.67-23.21,11.39-39.61,7.5-50.54,5.4-7.47-.98-30.6-3.46-34.94"/>
              <path class="cls-2" d="M60.37,31.36c-6.31,0-9.25-6.25-9.36-12.44-.12-6.52,3.23-10.41,8.96-10.41s9.21,3.89,9.32,10.41c.11,6.2-2.61,12.44-8.92,12.44Z"/>
              <g>
                <path class="cls-2" d="M87.45,79.89c.26,2.72,.5,5.94,4.63,5.84,3.82-.09,4.63-2.37,4.62-4.35-.1-14.74-2.8-24.31-5.85-32.47-3.06-8.17-8.52-12.91-15.03-15.51-2.4-.96-7.24-2.18-10.7-2.53"/>
                <path class="cls-2" d="M35.08,79.89c-.26,2.72-.5,5.94-4.63,5.84-3.82-.09-4.63-2.37-4.62-4.35,.1-14.74,2.41-24.31,5.47-32.47,3.06-8.17,8.52-12.91,15.03-15.51,1.08-.43,2.65-.92,4.37-1.35"/>
              </g>
            </g>
            <g>
              <path class="cls-2" d="M105.15,45.07c-2.48,4.34-8.86,27.47-3.46,34.94-1.98,5,.3,15.48,4.35,34.39,1.31,6.09,2.54,11.85,3.15,16.15,.49,3.45,3.38,5.95,6.87,5.95,3.9,0,7.12-3.17,7.19-7.07l-.58-44.35c-.01-.95-.03-1.71,.95-1.69,.87,.01,.87,.65,.87,1.69l-.58,44.35c.07,3.9,3.29,7.07,7.19,7.07,3.49,0,6.18-2.54,6.87-5.95,4.67-23.21,11.39-39.61,7.5-50.54,5.4-7.47-.98-30.6-3.46-34.94"/>
              <path class="cls-2" d="M122.86,31.36c-6.31,0-9.25-6.25-9.36-12.44-.12-6.52,3.23-10.41,8.96-10.41s9.21,3.89,9.32,10.41c.11,6.2-2.61,12.44-8.92,12.44Z"/>
              <g>
                <path class="cls-2" d="M149.94,79.89c.26,2.72,.5,5.94,4.63,5.84,3.82-.09,4.63-2.37,4.62-4.35-.1-14.74-2.8-24.31-5.85-32.47-3.06-8.17-8.52-12.91-15.03-15.51-2.4-.96-7.24-2.18-10.7-2.53"/>
                <path class="cls-2" d="M97.58,79.89c-.26,2.72-.5,5.94-4.63,5.84-3.82-.09-4.63-2.37-4.62-4.35,.1-14.74,2.41-24.31,5.47-32.47,3.06-8.17,8.52-12.91,15.03-15.51,1.08-.43,2.65-.92,4.37-1.35"/>
              </g>
            </g>
            <g>
              <path class="cls-2" d="M137.24,48.5c-2.17,3.8-7.75,24.04-3.03,30.57-1.73,4.38,.26,13.54,3.81,30.09,1.14,5.33,2.22,10.37,2.76,14.13,.43,3.02,2.96,5.2,6.01,5.2,3.41,0,6.23-2.78,6.29-6.19l-.51-38.8c0-.83-.03-1.49,.83-1.48,.76,.01,.76,.57,.76,1.48l-.51,38.8c.06,3.41,2.88,6.19,6.29,6.19,3.06,0,5.41-2.22,6.01-5.2,4.09-20.31,9.97-34.66,6.57-44.23,4.72-6.54-.86-26.77-3.03-30.57"/>
              <path class="cls-2" d="M152.74,36.5c-5.52,0-8.09-5.47-8.19-10.89-.1-5.71,2.83-9.11,7.84-9.11s8.06,3.41,8.16,9.11c.1,5.42-2.28,10.89-7.81,10.89Z"/>
              <g>
                <path class="cls-2" d="M176.43,78.96c.22,2.38,.44,5.19,4.05,5.11,3.34-.08,4.05-2.07,4.04-3.81-.09-12.9-2.45-21.27-5.12-28.41-2.67-7.15-7.45-11.29-13.15-13.57-2.1-.84-6.34-1.91-9.36-2.21"/>
                <path class="cls-2" d="M130.61,78.96c-.22,2.38-.44,5.19-4.05,5.11-3.34-.08-4.05-2.07-4.04-3.81,.09-12.9,2.11-21.27,4.78-28.41,2.67-7.15,7.45-11.29,13.15-13.57,.94-.38,2.32-.8,3.83-1.18"/>
              </g>
            </g>
          </g>
          <g class="cls-5">
            <path class="cls-4" d="M68.48,41.64c-2.81,4.88-10.04,30.9-3.92,39.31-2.25,5.63,5.28,17.41,9.87,38.69,1.48,6.85,2.88,13.33,3.57,18.17,.55,3.88,3.83,6.69,7.79,6.69,4.42,0,8.07-3.57,8.15-7.96l-.66-49.89c-.01-1.07-.03-1.92,1.08-1.9,.98,.01,.99,.73,.99,1.9l-.66,49.89c.08,4.39,3.73,7.96,8.15,7.96,3.96,0,7.01-2.85,7.79-6.69,5.29-26.11,17.85-44.56,13.44-56.86,6.12-8.4-1.11-34.42-3.92-39.31"/>
            <path class="cls-4" d="M94.07,26.21c-7.1,0-10.41-7.03-10.53-14-.13-7.34,3.64-11.71,10.08-11.71s10.36,4.38,10.49,11.71c.12,6.97-2.93,14-10.04,14Z"/>
            <path class="cls-4" d="M62.69,63.18c-1.38,7.77-1.43,17.64-1.43,17.64-.32,3.06-.64,6.68-5.88,6.56-4.85-.1-5.88-2.67-5.86-4.89,.13-16.58,3.06-27.35,6.94-36.53,3.88-9.19,10.82-14.52,19.09-17.44,1.37-.48,3.37-1.03,5.55-1.52,3.47-.79,12.73-1.62,18.31-1.32,4.4,.24,10.54,1.77,13.59,2.84,8.27,2.93,15.21,8.25,19.09,17.44,3.88,9.18,7.31,19.95,7.43,36.53,.02,2.23-1.01,4.79-5.86,4.89-5.24,.11-5.56-3.5-5.88-6.56,0,0-.82-11.01-1.74-16.87"/>
          </g>
          <g>
            <path class="cls-3" d="M64.48,41.64c-2.81,4.88-10.04,30.9-3.92,39.31-2.25,5.63,5.28,17.41,9.87,38.69,1.48,6.85,2.88,13.33,3.57,18.17,.55,3.88,3.83,6.69,7.79,6.69,4.42,0,8.07-3.57,8.15-7.96l-.66-49.89c-.01-1.07-.03-1.92,1.08-1.9,.98,.01,.99,.73,.99,1.9l-.66,49.89c.08,4.39,3.73,7.96,8.15,7.96,3.96,0,7.01-2.85,7.79-6.69,5.29-26.11,17.85-44.56,13.44-56.86,6.12-8.4-1.11-34.42-3.92-39.31"/>
            <path class="cls-3" d="M90.07,26.21c-7.1,0-10.41-7.03-10.53-14-.13-7.34,3.64-11.71,10.08-11.71s10.36,4.38,10.49,11.71c.12,6.97-2.93,14-10.04,14Z"/>
            <g>
              <path class="cls-3" d="M123.77,80.83c.32,3.06,.64,6.68,5.88,6.56,4.85-.1,5.88-2.67,5.86-4.89-.13-16.58-3.55-27.35-7.43-36.53-3.88-9.19-10.82-14.52-19.09-17.44-3.05-1.08-9.2-2.46-13.59-2.84"/>
              <path class="cls-3" d="M57.26,80.83c-.32,3.06-.64,6.68-5.88,6.56-4.85-.1-5.88-2.67-5.86-4.89,.13-16.58,3.06-27.35,6.94-36.53,3.88-9.19,10.82-14.52,19.09-17.44,1.37-.48,3.37-1.03,5.55-1.52"/>
            </g>
          </g>
        </g>
      </g>
    </g>
  </g>
</svg>