<?xml version="1.0" encoding="UTF-8"?>
<svg id="Layer_2" data-name="Layer 2" xmlns="http://www.w3.org/2000/svg" viewBox="0 0 78.9 71.84">
  <defs>
    <style>
      .cls-1 {
        fill: none;
        stroke: #333;
        stroke-linecap: round;
        stroke-linejoin: round;
        stroke-width: 3.12px;
      }
    </style>
  </defs>
  <g id="CONTENT">
    <path class="cls-1" d="M6.53,37.33C.75,27.43-1.12,16.88,7.15,8.14,11.29,3.75,16.72,1.56,22.15,1.56c18.09,0,14.97,12.99,17.3,15.47,2.33-2.48-.79-15.47,17.3-15.47,5.43,0,10.86,2.19,15,6.58,20.18,21.36-20.04,53.42-30.1,60.71-2.73,1.98-1.8,1.9-4.65-.18-3.85-2.8-11.62-8.87-18.9-16.48"/>
    <path class="cls-1" d="M3.54,44h14.48l4.31-27.21,4.99,27.21h7.02l4.31,12.89c3.93-11.08,6.52-18.15,9.86-30.08l4.8,17.19h14.4"/>
    <path class="cls-1" d="M6.53,37.33C.75,27.43-1.12,16.88,7.15,8.14,11.29,3.75,16.72,1.56,22.15,1.56c18.09,0,14.97,12.99,17.3,15.47,2.33-2.48-.79-15.47,17.3-15.47,5.43,0,10.86,2.19,15,6.58,20.18,21.36-20.04,53.42-30.1,60.71-2.73,1.98-1.8,1.9-4.65-.18-3.85-2.8-11.62-8.87-18.9-16.48"/>
    <path class="cls-1" d="M63,8.94c1.72,.76,3.33,1.88,4.73,3.36,6.6,6.99,3.87,15.62-1.58,23.33"/>
  </g>
</svg>