<?xml version="1.0" encoding="UTF-8"?>
<svg id="Layer_2" data-name="Layer 2" xmlns="http://www.w3.org/2000/svg" viewBox="0 0 89.82 64">
  <defs>
    <style>
      .cls-1 {
        fill: #001965;
      }
    </style>
  </defs>
  <g id="CONTENT">
    <path class="cls-1" d="M6.91,63.37c0,.08-.01,.16-.03,.22-.02,.06-.07,.12-.16,.16h-.95c-.13,0-.22-.02-.29-.06-.06-.04-.1-.15-.1-.32v-5.71c0-.42-.09-.88-.25-1.36-.17-.49-.76-.73-1.78-.73-.59,0-1.05,.07-1.36,.22-.32,.15-.48,.33-.48,.54v7.04c0,.17-.03,.27-.1,.32-.06,.04-.16,.06-.29,.06H.32c-.13,0-.21-.02-.25-.06-.04-.04-.06-.13-.06-.25v-7.67c0-.17,.05-.31,.16-.41s.31-.2,.6-.29c.25-.08,.6-.18,1.05-.29,.44-.1,.98-.16,1.62-.16,1.73,0,2.75,.34,3.04,1.01,.3,.68,.44,1.29,.44,1.84v5.9Zm9.07-4.06c0,1.01-.15,1.86-.44,2.54-.3,.68-.7,1.18-1.21,1.52-.3,.21-.65,.37-1.05,.48-.4,.11-.79,.16-1.17,.16-.42,0-.82-.05-1.21-.16-.38-.11-.72-.26-1.01-.48-.51-.34-.91-.85-1.21-1.52-.3-.68-.44-1.52-.44-2.54s.15-1.86,.44-2.54c.3-.68,.7-1.18,1.21-1.52,.3-.21,.64-.37,1.05-.48,.4-.1,.79-.16,1.17-.16s.77,.05,1.17,.16c.4,.11,.75,.26,1.05,.48,.51,.34,.91,.85,1.21,1.52,.3,.68,.44,1.52,.44,2.54Zm-1.59,0c0-.8-.07-1.47-.22-2-.15-.53-.33-.9-.54-1.11-.25-.25-.5-.41-.73-.48-.23-.06-.5-.1-.79-.1s-.56,.03-.79,.1c-.23,.06-.45,.22-.67,.48-.25,.21-.45,.58-.6,1.11-.15,.53-.22,1.2-.22,2s.07,1.47,.22,2c.15,.53,.35,.9,.6,1.11,.21,.25,.43,.41,.67,.48,.23,.06,.5,.1,.79,.1s.56-.03,.79-.1c.23-.06,.48-.22,.73-.48,.21-.21,.39-.58,.54-1.11,.15-.53,.22-1.19,.22-2Zm9.32-4.31v.25l-3.04,8.18c-.04,.13-.07,.21-.1,.25-.02,.04-.1,.06-.22,.06h-.63c-.09,0-.14-.02-.16-.06-.02-.04-.07-.13-.16-.25l-3.11-8.18s-.02-.11-.06-.19c0-.13,.03-.2,.1-.22,.06-.02,.12-.03,.16-.03h1.08c.13,0,.21,.01,.25,.03,.04,.02,.08,.1,.13,.22l2.28,6.53,2.22-6.53c.04-.08,.07-.15,.1-.19,.02-.04,.07-.06,.16-.06h.82s.08,.01,.13,.03c.04,.02,.06,.07,.06,.16ZM61.65,25.5c.17,.76,.3,1.86,.38,3.3,.08,1.44,.14,3.08,.16,4.92,.02,1.84,.03,3.8,.03,5.87v6.41c0,.3-.02,.53-.06,.7-.04,.17-.23,.25-.57,.25-1.1-.04-1.77-.02-2,.06-.23,.09-.39,.28-.48,.57-.17,.42-.3,.79-.38,1.11-.09,.32-.19,.71-.32,1.17-.09,.38-.18,.66-.29,.82-.11,.17-.29,.25-.54,.25h-2.73c-.21,0-.36-.12-.44-.35-.09-.23-.04-.52,.13-.86,1.78-3.17,2.67-5.95,2.7-8.34,.02-2.39-.48-4.26-1.49-5.61-.34,1.23-.59,2.14-.76,2.73-.17,.59-.34,.95-.51,1.08-2.11,1.61-3.72,3.72-4.82,6.34-1.1,2.62-1.69,4.06-1.78,4.31-.09,.25-.21,.43-.38,.54-.17,.11-.42,.16-.76,.16h-2.98c-.47,0-.7-.13-.7-.38s.13-.53,.38-.82c2.37-2.54,4.01-4.51,4.92-5.93,.91-1.42,1.7-3.18,2.38-5.3,.72-2.16,.49-3.55-.7-4.19-1.18-.63-2.41-.4-3.68,.7-3.26-1.48-5.42-1.61-6.5-.38-1.08,1.23-1.51,2.39-1.3,3.49,.3,1.73,.86,3.83,1.68,6.28,.82,2.45,1.28,4.36,1.36,5.71,.04,.34-.05,.56-.29,.67-.23,.11-.46,.16-.67,.16h-2.85c-.47,0-.67-.16-.6-.48,.06-.32,.12-.56,.16-.73,.72-3.55,.52-6.37-.6-8.47-1.12-2.09-2.44-3.6-3.96-4.54-.89,.68-1.82,2.53-2.79,5.55-.97,3.02-1.52,5.59-1.65,7.71-.04,.25-.13,.48-.25,.67-.13,.19-.3,.29-.51,.29h-3.36c-.25,0-.4-.13-.44-.38-.04-.25,.04-.57,.25-.95,.85-1.56,1.79-3.5,2.82-5.8,1.04-2.3,1.55-4.75,1.55-7.33,0-.3-.03-.8-.1-1.52-.06-.72-.31-1.31-.73-1.78-.93-1.1-1.68-2.26-2.25-3.49-.57-1.23-1.09-2.26-1.55-3.11-.34-.59-.7-1-1.08-1.24-.38-.23-.74-.37-1.08-.41-.34-.08-.64-.11-.92-.06-.28,.04-.56,0-.86-.13-.3-.17-.54-.38-.73-.63-.19-.25-.41-.51-.67-.76-.17-.21-.3-.48-.38-.79-.09-.32-.02-.6,.19-.86,.42-.55,.76-.98,1.01-1.3,.25-.32,.42-.58,.51-.79,.04-.21,.07-.38,.1-.51,.02-.13,.03-.27,.03-.44s.15-.44,.44-.82c.3-.38,.61-.76,.95-1.14,.13-.17,.14-.37,.03-.6-.11-.23-.26-.48-.48-.73-.21-.25-.56-.82-1.05-1.71-.49-.89-.73-2.09-.73-3.62,0-.59,.08-.89,.25-.89s.32,.19,.44,.57c.17,.42,.61,1.25,1.33,2.47,.72,1.23,1.92,2.16,3.62,2.79,1.65,.59,3.19,.7,4.63,.32,1.44-.38,2.68-.99,3.74-1.84,.38-.34,.61-.42,.7-.25,.08,.17-.04,.55-.38,1.14-.47,.72-1.06,1.33-1.78,1.84-.72,.51-1.5,.99-2.35,1.46-.17,.09-.31,.18-.41,.29-.11,.11,.03,.24,.41,.41,2.33,1.1,4.9,1.99,7.74,2.66,2.83,.68,5.58,1.01,8.25,1.01,1.94,0,3.81-.1,5.58-.32,1.78-.21,3.19-.36,4.25-.44,.97-.08,2.2,.07,3.68,.48,1.48,.4,2.43,1.66,2.85,3.77Zm-35.58,2.66c.25-1.61,.77-3.03,1.55-4.28,.78-1.25,1.32-2.12,1.62-2.63,.51-.76,.53-1.23,.06-1.4-.47-.17-1.42-.68-2.85-1.52-1.18-.72-2.01-1.16-2.47-1.33-.47-.17-.89-.08-1.27,.25-.34,.3-.67,.63-.98,1.01-.32,.38-.5,.66-.54,.82-.09,.17-.13,.4-.13,.7s-.06,.55-.19,.76c-.17,.17-.49,.59-.95,1.27-.3,.38-.4,.63-.32,.76,.08,.13,.3,.38,.63,.76,.25,.38,.7,.49,1.33,.32,.63-.17,1.33,.06,2.09,.7,.38,.3,.79,.89,1.24,1.78,.44,.89,.83,1.57,1.17,2.03Zm1.71-14.59c-1.86,0-3.45-.67-4.76-2-1.31-1.33-1.97-2.93-1.97-4.79s.66-3.46,1.97-4.79c1.31-1.33,2.9-2,4.76-2s3.45,.66,4.76,1.97c1.31,1.31,1.97,2.92,1.97,4.82s-.66,3.46-1.97,4.79c-1.31,1.33-2.9,2-4.76,2Zm-4.88,5.49c.8-.15,1.23-.14,1.27,.03,.08,.13-.14,.44-.67,.95-.53,.51-.96,.51-1.3,0-.34-.51-.11-.83,.7-.98ZM27.97,1.59c-1.23,0-2.28,.43-3.17,1.3-.89,.87-1.33,1.93-1.33,3.2s.44,2.27,1.33,3.14c.89,.87,1.94,1.3,3.17,1.3s2.27-.43,3.14-1.3,1.3-1.91,1.3-3.14-.43-2.28-1.3-3.17c-.87-.89-1.91-1.33-3.14-1.33Zm3.2,60.26c-.32,.68-.71,1.18-1.17,1.52-.34,.21-.7,.37-1.08,.48-.38,.11-.76,.16-1.14,.16-.42,0-.82-.05-1.21-.16-.38-.11-.74-.26-1.08-.48-.47-.34-.86-.85-1.17-1.52-.32-.68-.48-1.52-.48-2.54s.16-1.86,.48-2.54c.32-.68,.71-1.18,1.17-1.52,.34-.21,.7-.37,1.08-.48,.38-.1,.78-.16,1.21-.16,.38,0,.77,.05,1.17,.16,.4,.11,.75,.26,1.05,.48,.46,.34,.86,.85,1.17,1.52,.32,.68,.48,1.52,.48,2.54s-.16,1.86-.48,2.54Zm-1.33-4.54c-.15-.53-.35-.9-.6-1.11-.21-.25-.43-.41-.67-.48-.23-.06-.5-.1-.79-.1s-.56,.03-.79,.1c-.23,.06-.48,.22-.73,.48-.25,.21-.44,.58-.57,1.11-.13,.53-.19,1.2-.19,2s.06,1.47,.19,2,.32,.9,.57,1.11c.25,.25,.5,.41,.73,.48,.23,.06,.5,.1,.79,.1s.56-.03,.79-.1c.23-.06,.45-.22,.67-.48,.25-.21,.45-.58,.6-1.11,.15-.53,.22-1.19,.22-2s-.07-1.47-.22-2Zm28.13-30.22c.08-1.31,.02-2.42-.19-3.33-.21-.91-1.14-1.3-2.79-1.17,.42,.8,.62,1.6,.6,2.38-.02,.78-.39,1.43-1.11,1.93-.72,.51-1.31,.69-1.78,.54-.47-.15-.7-.45-.7-.92,0-.42-.06-.94-.19-1.55-.13-.61-.44-1.24-.95-1.87-.25,.04-.49,.07-.7,.1-.21,.02-.47,.05-.76,.1,.17,.72,.29,1.62,.35,2.7,.06,1.08-.18,1.89-.73,2.44-.55,.55-1.51,.87-2.89,.95-1.37,.09-2.87,.09-4.47,0-.3-.04-.61-.14-.95-.29-.34-.15-.57-.41-.7-.79-.09-.17-.18-.59-.29-1.27-.11-.68-.18-2.03-.22-4.06-.3-.04-.56-.08-.79-.13-.23-.04-.48-.1-.73-.19-.3,1.99-.74,3.39-1.33,4.22-.59,.82-1.25,1.32-1.97,1.49-.68,.17-1.32,.16-1.93-.03-.61-.19-.86-.64-.73-1.36,.13-.68,.33-1.44,.6-2.28,.27-.85,.43-1.94,.48-3.3-.85-.34-1.36-.52-1.55-.54-.19-.02-.39,.12-.6,.41-1.48,2.03-2.44,3.65-2.89,4.85-.44,1.21-.58,2.23-.41,3.08,.13,.8,.52,1.61,1.17,2.41,.66,.8,1.51,1.52,2.57,2.16,1.06,.63,1.96,1.18,2.7,1.65,.74,.47,1.47,1.08,2.19,1.84,.08,.09,.17,.13,.25,.13s.13-.08,.13-.25c.38-2.37,1.49-3.87,3.33-4.5,1.84-.63,4.05-.93,6.63-.89,3.68,.09,6.1,.52,7.26,1.3,1.16,.78,1.98,1.07,2.44,.86,.42-.21,.78-1.07,1.08-2.57,.3-1.5,.49-2.91,.57-4.22Zm-24.48-.76c-.17,.55-.09,.85,.25,.89,.34,.04,.61,.02,.82-.06,.3-.13,.68-.51,1.14-1.14,.46-.63,.82-1.84,1.08-3.62-.38-.08-.78-.18-1.21-.29-.42-.11-.82-.22-1.21-.35-.09,.76-.21,1.58-.38,2.44-.17,.87-.34,1.58-.51,2.12Zm10.09,37.04c0,.08-.01,.16-.03,.22-.02,.06-.07,.12-.16,.16h-.95c-.13,0-.22-.02-.29-.06-.06-.04-.1-.15-.1-.32v-5.71c0-.42-.09-.88-.25-1.36-.17-.49-.76-.73-1.78-.73-.59,0-1.05,.07-1.36,.22-.32,.15-.48,.33-.48,.54v7.04c0,.17-.03,.27-.1,.32-.06,.04-.16,.06-.29,.06h-.82c-.13,0-.21-.02-.25-.06s-.06-.13-.06-.25v-7.67c0-.17,.05-.31,.16-.41,.11-.1,.31-.2,.6-.29,.25-.08,.59-.18,1.01-.29,.42-.1,.97-.16,1.65-.16,1.73,0,2.75,.34,3.04,1.01,.3,.68,.44,1.29,.44,1.84v5.9Zm4.69-40.02c-1.27,.09-2.54,.11-3.81,.06-1.27-.04-2.54-.15-3.81-.32,.04,.63,.08,1.34,.13,2.12,.04,.78,.11,1.43,.19,1.93,.08,.42,.2,.68,.35,.76,.15,.09,.31,.15,.48,.19,.59,.09,1.67,.13,3.23,.13s2.58-.23,3.04-.7c.3-.3,.45-.87,.48-1.71,.02-.85-.07-1.67-.29-2.47Zm3.9,38.5c-.32,.68-.71,1.18-1.17,1.52-.34,.21-.7,.37-1.08,.48-.38,.11-.78,.16-1.21,.16-.38,0-.77-.05-1.17-.16-.4-.11-.75-.26-1.05-.48-.51-.34-.91-.85-1.21-1.52-.3-.68-.44-1.52-.44-2.54s.15-1.86,.44-2.54c.3-.68,.7-1.18,1.21-1.52,.34-.21,.7-.37,1.08-.48,.38-.1,.76-.16,1.14-.16,.42,0,.82,.05,1.21,.16,.38,.11,.74,.26,1.08,.48,.46,.34,.86,.85,1.17,1.52,.32,.68,.48,1.52,.48,2.54s-.16,1.86-.48,2.54Zm-1.33-4.54c-.15-.53-.35-.9-.6-1.11-.21-.25-.43-.41-.67-.48-.23-.06-.52-.1-.86-.1-.25,0-.5,.03-.73,.1-.23,.06-.48,.22-.73,.48-.25,.21-.45,.58-.6,1.11-.15,.53-.22,1.2-.22,2s.07,1.47,.22,2c.15,.53,.35,.9,.6,1.11,.25,.25,.49,.41,.7,.48,.21,.06,.46,.1,.76,.1,.34,0,.62-.03,.86-.1,.23-.06,.45-.22,.67-.48,.25-.21,.45-.58,.6-1.11,.15-.53,.22-1.19,.22-2s-.07-1.47-.22-2Zm3.08-34.6c-.3,.04-.6,.07-.92,.1-.32,.02-.6,.07-.86,.16,.3,.47,.54,.97,.73,1.52,.19,.55,.29,1.18,.29,1.9,.13,.04,.36-.02,.7-.19,.34-.17,.55-.42,.63-.76,.08-.34,.1-.72,.06-1.14-.04-.42-.25-.95-.63-1.59Zm4.82,32.79c0,.25-.07,.44-.22,.57-.15,.13-.33,.19-.54,.19-.3,0-.54-.14-.73-.41-.19-.27-.56-.41-1.11-.41-.25,0-.47,.07-.63,.22-.17,.15-.25,.33-.25,.54v7.23c0,.13-.02,.2-.06,.22-.04,.02-.13,.03-.25,.03h-.82c-.13,0-.22-.01-.29-.03-.06-.02-.1-.1-.1-.22v-7.87c0-.13,.06-.25,.19-.38s.34-.23,.63-.32c.21-.08,.48-.15,.79-.19,.32-.04,.71-.06,1.17-.06,.59,0,1.11,.06,1.55,.19,.44,.13,.67,.36,.67,.7Zm7.55,7.29c0,.3-.35,.57-1.05,.82s-1.36,.38-2,.38c-1.31,0-2.37-.39-3.17-1.17-.8-.78-1.21-1.96-1.21-3.52,0-1.06,.34-2.09,1.01-3.11,.68-1.01,1.69-1.52,3.04-1.52,.38,0,.72,.04,1.01,.13,.3,.09,.57,.19,.82,.32v-3.11c0-.17,.02-.27,.06-.32s.13-.06,.25-.06h.89c.08,0,.16,.01,.22,.03,.06,.02,.1,.12,.1,.29v10.85Zm-5.9-22.77c.13-.76,.21-2.58,.25-5.45,.04-2.88-.19-4.57-.7-5.07-.09-.08-.17-.13-.25-.13s-.13,.06-.13,.19c-.09,1.14-.21,2.32-.38,3.52-.17,1.21-.21,2.04-.13,2.51,.08,.51,.23,1.24,.44,2.19,.21,.95,.34,1.68,.38,2.19,.04,.38,.13,.54,.25,.48,.13-.06,.21-.2,.25-.41Zm4.38,22.26h.06v-6.03c-.17-.13-.38-.25-.63-.38-.25-.13-.59-.19-1.01-.19-.8,0-1.46,.32-1.97,.95-.51,.63-.76,1.48-.76,2.54,0,1.18,.26,2.11,.79,2.79,.53,.68,1.19,1.01,2,1.01,.42,0,.78-.06,1.08-.19,.3-.13,.44-.3,.44-.51Zm5.01-9.29c-.17,.19-.4,.29-.7,.29s-.53-.08-.7-.25c-.17-.17-.25-.38-.25-.63s.1-.48,.29-.67c.19-.19,.41-.29,.67-.29s.46,.09,.63,.25c.17,.17,.25,.38,.25,.63,.04,.25-.02,.48-.19,.67Zm.06,10.43c0,.17-.02,.26-.06,.29-.04,.02-.15,.03-.32,.03h-.89c-.13,0-.2-.02-.22-.06-.02-.04-.03-.13-.03-.25v-8.31c0-.08,0-.16,.03-.22,.02-.06,.1-.1,.22-.1h.89c.17,0,.27,.02,.32,.06,.04,.04,.06,.13,.06,.25v8.31Zm7.23-2.09c0,.93-.33,1.61-.98,2.03-.66,.42-1.39,.63-2.19,.63-.68,0-1.3-.14-1.87-.41-.57-.28-.86-.58-.86-.92,0-.21,.07-.36,.22-.44,.15-.09,.29-.13,.41-.13,.3,0,.57,.15,.82,.44,.25,.3,.7,.44,1.33,.44,.59,0,1.04-.16,1.33-.48,.3-.32,.44-.67,.44-1.05,0-.47-.2-.81-.6-1.05-.4-.23-.86-.45-1.36-.67-.59-.25-1.12-.57-1.59-.95-.47-.38-.7-.95-.7-1.71,0-.8,.3-1.41,.89-1.81,.59-.4,1.27-.6,2.03-.6,.59,0,1.13,.09,1.62,.25,.49,.17,.73,.42,.73,.76,0,.21-.07,.37-.22,.48-.15,.11-.29,.16-.41,.16-.25,0-.49-.12-.7-.35-.21-.23-.57-.35-1.08-.35s-.88,.14-1.11,.41c-.23,.28-.35,.58-.35,.92,0,.97,.7,1.58,2.09,1.81,1.4,.23,2.09,1.09,2.09,2.57Zm2.66,2.38s-.13,.03-.25,.03h-.89c-.13,0-.2-.02-.22-.06-.02-.04-.03-.13-.03-.25v-11.54c0-.13,.02-.21,.06-.25,.04-.04,.1-.06,.19-.06h.89c.13,0,.21,.01,.25,.03,.04,.02,.06,.1,.06,.22v11.67c0,.13-.02,.2-.06,.22Zm5.33-.16c0,.08-.03,.14-.1,.16-.06,.02-.12,.03-.16,.03h-1.21c-.13,0-.22-.01-.29-.03-.06-.02-.14-.1-.22-.22l-3.04-4.38v-.13s.02-.06,.06-.06c.63-.38,1.24-.93,1.81-1.65,.57-.72,.98-1.46,1.24-2.22,.04-.13,.1-.2,.16-.22,.06-.02,.18-.03,.35-.03h.82c.08,0,.16,.01,.22,.03,.06,.02,.1,.07,.1,.16,0,.04-.01,.1-.03,.16-.02,.06-.05,.14-.1,.22-.34,.72-.78,1.4-1.33,2.03-.55,.63-1.12,1.16-1.71,1.59l3.3,4.31s.07,.08,.1,.13c.02,.04,.03,.08,.03,.13Zm1.97-16.3c.76,0,1.42,.28,1.97,.82,.55,.55,.82,1.21,.82,1.97s-.28,1.41-.82,1.93c-.55,.53-1.21,.79-1.97,.79-.72,0-1.35-.26-1.9-.79-.55-.53-.82-1.17-.82-1.93s.27-1.42,.82-1.97c.55-.55,1.18-.82,1.9-.82Zm-1.62,1.17c-.44,.44-.67,.98-.67,1.62s.22,1.17,.67,1.62c.44,.44,.98,.67,1.62,.67,.68,0,1.24-.22,1.68-.67,.44-.44,.67-.98,.67-1.62s-.23-1.17-.7-1.62c-.47-.44-1.01-.67-1.65-.67s-1.17,.22-1.62,.67Zm.48,3.14v-2.98h1.02c.17,0,.35,.01,.54,.03,.19,.02,.35,.07,.48,.16,.08,.09,.15,.18,.19,.29,.04,.11,.06,.2,.06,.29,0,.17-.06,.35-.19,.54-.13,.19-.34,.29-.63,.29,.08,.04,.17,.11,.25,.19,.08,.09,.23,.28,.44,.57l.32,.57h-.57l-.25-.44c-.17-.34-.31-.55-.41-.63-.11-.08-.26-.13-.48-.13h-.25v1.27h-.51Zm.44-1.71h.57c.13,0,.27-.02,.44-.06,.17-.04,.25-.17,.25-.38s-.09-.34-.25-.38c-.17-.04-.32-.06-.44-.06h-.57v.89Z"/>
  </g>
</svg>