<?xml version="1.0" encoding="UTF-8"?>
<svg id="Layer_2" data-name="Layer 2" xmlns="http://www.w3.org/2000/svg" viewBox="0 0 23.01 42">
  <defs>
    <style>
      .cls-1 {
        fill: #cbcfd5;
      }
    </style>
  </defs>
  <g id="CONTENT">
    <g>
      <path class="cls-1" d="M14.86,32.29H6.06c-.2,0-.39-.08-.52-.23C1.97,28.24,0,23.26,0,18.03V5.81c0-.39,.32-.71,.71-.71H11.63c.39,0,.71,.32,.71,.71s-.32,.71-.71,.71H1.43v11.5c0,4.76,1.76,9.31,4.95,12.83H14.55c3.19-3.52,4.95-8.06,4.95-12.83v-.8c0-.39,.32-.71,.71-.71s.71,.32,.71,.71v.8c0,5.23-1.97,10.21-5.54,14.03-.13,.14-.32,.23-.52,.23Z"/>
      <path class="cls-1" d="M10.46,42c-1.52,0-2.76-1.24-2.76-2.76v-7.67c0-.39,.32-.71,.71-.71h4.1c.39,0,.71,.32,.71,.71v7.67c0,1.52-1.24,2.76-2.76,2.76Zm-1.33-9.71v6.95c0,.74,.6,1.33,1.33,1.33s1.33-.6,1.33-1.33v-6.95h-2.67Z"/>
      <path class="cls-1" d="M13.68,17.61H.71c-.39,0-.71-.32-.71-.71v-7.65c0-.39,.32-.71,.71-.71H10.46c.39,0,.71,.32,.71,.71s-.32,.71-.71,.71H1.43v6.22H13.68c.39,0,.71,.32,.71,.71s-.32,.71-.71,.71Z"/>
      <path class="cls-1" d="M17.64,15.89c-2.96,0-5.37-2.41-5.37-5.37C12.49,5.47,16.92,.44,17.11,.23c.27-.3,.8-.3,1.07,0,.19,.21,4.62,5.24,4.83,10.26,0,2.99-2.41,5.4-5.37,5.4Zm0-14.06c-1.15,1.47-3.79,5.19-3.94,8.72,0,2.14,1.77,3.91,3.94,3.91s3.94-1.77,3.94-3.94c-.15-3.51-2.79-7.23-3.94-8.69Z"/>
      <path class="cls-1" d="M2.78,6.53c-.39,0-.71-.32-.71-.71,0-1.97,1.6-3.58,3.58-3.58h6.73c.39,0,.71,.32,.71,.71s-.32,.71-.71,.71H5.65c-1.19,0-2.15,.96-2.15,2.15,0,.39-.32,.71-.71,.71Z"/>
      <path class="cls-1" d="M16.25,20.68H4.68c-.39,0-.71-.32-.71-.71s.32-.71,.71-.71h11.57c.39,0,.71,.32,.71,.71s-.32,.71-.71,.71Z"/>
      <path class="cls-1" d="M10.46,29.5c-2.17,0-3.93-1.76-3.93-3.93s1.76-3.93,3.93-3.93,3.93,1.76,3.93,3.93-1.76,3.93-3.93,3.93Zm0-6.44c-1.38,0-2.51,1.12-2.51,2.51s1.12,2.51,2.51,2.51,2.51-1.12,2.51-2.51-1.12-2.51-2.51-2.51Z"/>
      <path class="cls-1" d="M8.11,13.78h-2.59c-.39,0-.71-.32-.71-.71s.32-.71,.71-.71h2.59c.39,0,.71,.32,.71,.71s-.32,.71-.71,.71Z"/>
      <path class="cls-1" d="M6.81,15.08c-.39,0-.71-.32-.71-.71v-2.59c0-.39,.32-.71,.71-.71s.71,.32,.71,.71v2.59c0,.39-.32,.71-.71,.71Z"/>
    </g>
  </g>
</svg>