<?xml version="1.0" encoding="utf-8"?>
<!-- Generator: Adobe Illustrator 28.0.0, SVG Export Plug-In . SVG Version: 6.00 Build 0)  -->
<svg version="1.1" xmlns="http://www.w3.org/2000/svg" xmlns:xlink="http://www.w3.org/1999/xlink" x="0px" y="0px"
	 viewBox="0 0 1425.55 2330.45" style="enable-background:new 0 0 1425.55 2330.45;" xml:space="preserve">
<style type="text/css">
	.st0{fill:#E97951;}
	.st1{fill:#C65F40;}
	.st2{fill:#E85F5B;}
	.st3{fill:#B04845;}
	.st4{fill:#174556;}
	.st5{fill:#DF86A6;}
	.st6{fill:#E87253;}
	.st7{fill:#C76847;}
	.st8{fill:#DE4E31;}
	.st9{fill:#13323E;}
	.st10{fill:#102F3B;}
	.st11{fill:#12313D;}
	.st12{fill:#11303B;}
	.st13{fill:#102F3A;}
	.st14{fill:#143F4E;}
	.st15{fill:#AF3116;}
	.st16{fill:#151C2C;}
	.st17{fill:#DD4F31;}
	.st18{fill:#F9F6DC;}
	.st19{fill:#E289A9;}
	.st20{fill:#B6351A;}
	.st21{fill:#10303B;}
	.st22{fill:#C4698B;}
	.st23{fill:#C4688A;}
	.st24{fill:#D79AB1;}
	.st25{fill:#C5688B;}
	.st26{fill:#AB3D3A;}
	.st27{fill:#F9F7DC;}
	.st28{opacity:0.35;fill:#F9F6DC;}
</style>
<g id="Art">
	<g>
		<g>
			<path class="st0" d="M747.5,682.71c4.49-0.19,8.9-1.66,13.42-1.18c18.55,1.36,36.44,9.89,49.2,23.4
				c6.21,6.85,11.63,15.21,12.05,24.72c0.77,9.44-4.04,17.98-8.01,26.18c-5.1,10.27-10.15,20.56-15.45,30.73
				c0,0-9.4-12.29-14.06-18.3c-1.84-2.3-3.21-4.99-3.64-7.92c-1.92-11.66-2.76-23.46-4.07-35.19c-0.47-5.51,0.16-11.18,1.91-16.43
				c0.83-2.64,3.68-4.95,2.89-7.88c-2.46-2.31-5.92-3.09-8.68-4.96c-2.69-1.8-5.72-2.96-8.71-4.15c-4.33-1.83-8.16-5.67-13.19-5.14
				c-2.27,0.21-4.49-0.23-6.53-1.18C745.54,684.47,746.39,683.42,747.5,682.71z"/>
			<path class="st1" d="M744.63,685.41c2.04,0.96,4.27,1.39,6.53,1.18c5.03-0.53,8.85,3.3,13.19,5.14c2.99,1.19,6.02,2.35,8.71,4.15
				c2.76,1.87,6.23,2.64,8.68,4.96c0.79,2.93-2.06,5.23-2.89,7.88c-1.75,5.24-2.38,10.91-1.91,16.43
				c1.31,11.73,2.15,23.53,4.07,35.19c0.42,2.93,1.8,5.62,3.64,7.92c4.67,6.01,9.26,12.08,13.92,18.1c-0.26,0.6-0.79,1.78-1.05,2.37
				c1.16,0.51,2.42,0.91,3.39,1.8c1.81,1.56,3.58,3.19,5.18,4.96c1.89,2.51,1.07,5.82,1.13,8.71c-8.86,7.47-18.11,14.63-28.48,19.94
				c-2.16,1.18-4.68,1.78-6.53,3.42c-4.05,4.81-7.49,10.17-11.87,14.68c-13.49,4.49-27.04,9.15-39.57,15.98
				c-13.75,8.1-27.33,16.51-40.64,25.31c-15.65,10.62-30.66,22.16-45.48,33.89c-9.73,8.59-20.43,16.33-28.37,26.72
				c-1.81,2.14-4.23,3.59-6.37,5.36c-5.23,4.41-8.15,11.1-13.94,14.92c-2.84,1.94-4.45,5.23-7.53,6.88
				c-3.92,2.08-5.07,7.01-8.99,9.07c-1.83-0.16-2.84-1.88-4.04-3.02c0.39-1.74,0.75-3.47,1.07-5.21c4.12-5.6,7.33-11.81,11.51-17.36
				c18.64-25.78,37.9-51.6,62.42-72.15c14.03-11.81,29.12-22.34,44.76-31.9c7.1-4.62,14.68-8.42,22.27-12.14
				c9.43-4.84,19.6-7.97,29.77-10.83c7.44-1.99,15.72-2.76,21.82-7.92c5.49-4.96,4.33-13.47,1.89-19.68
				c-6.44-16.06-6.2-33.69-5.09-50.66c0.7-8.87,3.7-17.36,4.79-26.16c0.32-4.43-2.16-8.38-3.47-12.46c-3.05-8.67-9-15.8-14.07-23.34
				C743.47,687,744.25,685.95,744.63,685.41z"/>
			<path class="st0" d="M726.51,713.32c5.08-8.88,11.19-17.09,16.57-25.79c5.07,7.54,11.02,14.67,14.07,23.34
				c1.32,4.09,3.79,8.03,3.47,12.46c-1.09,8.81-4.1,17.29-4.79,26.16c-1.11,16.97-1.35,34.6,5.09,50.66
				c2.45,6.21,3.6,14.71-1.89,19.68c-6.1,5.16-14.39,5.94-21.82,7.92c-10.17,2.86-20.34,5.99-29.77,10.83
				c-7.59,3.72-15.16,7.52-22.27,12.14c-15.64,9.56-30.72,20.08-44.76,31.9C615.9,903.18,596.64,929,578,954.78
				c-4.18,5.56-7.39,11.76-11.51,17.36c4.58-32.74,16.87-63.82,30.94-93.54c6.29-12.84,13.39-25.36,22.19-36.66
				c15.97-21.61,34.29-41.41,53.87-59.78c10.07-8.87,19.58-18.46,27.89-29C710.74,740.54,718.72,726.96,726.51,713.32z"/>
			<path class="st0" d="M802.2,790.97c2.13-2.12,3.86-5.7,7.2-5.85c2.51,0.97,5.31,3.01,5.19,6.03c0.16,1.49-0.99,2.69-1.55,3.98
				c1.17,4.32-3.12,6.63-5.81,9.06c-0.05-2.89,0.76-6.2-1.13-8.71c-1.6-1.78-3.38-3.4-5.18-4.96
				C801.24,790.64,801.88,790.86,802.2,790.97z"/>
			<path class="st0" d="M720.78,858.22c12.41-7.04,26.07-11.49,39.57-15.98c-10.32,14.06-23.57,25.56-36.17,37.49
				c-8.12,7.55-15.05,16.24-22.64,24.3c-8.68,9.25-15.99,19.65-23.33,29.97c-3.67,4.66-7.16,9.76-12.33,12.9
				c-8,4.96-16.71,8.58-25.24,12.52c-7.1,3.26-14.69,5.24-21.99,8.01c-16.33,6.16-33.39,10.05-49.87,15.71
				c-3.74,1.16-4.31-3.25-3.38-5.79c1.2,1.15,2.21,2.86,4.04,3.02c3.92-2.06,5.07-6.99,8.99-9.07c3.08-1.64,4.68-4.94,7.53-6.88
				c5.79-3.82,8.71-10.51,13.94-14.92c2.14-1.77,4.57-3.22,6.37-5.36c7.93-10.4,18.64-18.13,28.37-26.72
				c14.82-11.73,29.83-23.27,45.48-33.89C693.45,874.73,706.9,866.09,720.78,858.22z"/>
			<path class="st1" d="M1193.13,1594.16c1.53-1.71,4.64-1.13,5.34,1.07c1.75,4.86,3.14,9.87,4.6,14.84
				c-0.28,1.61-0.65,3.21-0.99,4.84c-12.42,7.53-25.25,15.66-32.92,28.4c-9.51,13.19-9.67,31.11-20.7,43.38
				c-10.27,9.95-23.53,15.87-35.82,22.85c-7.13,3.94-13.85,8.87-18.91,15.33c-5.18,6.13-9.18,13.24-15.11,18.74
				c-3.43-10.15-6.64-20.42-8.8-30.93c-1.84-9.96-3.42-19.98-5.46-29.91c-1.53-9.26-4.56-18.5-3.38-27.98
				c0.2-1.8,1.22-4.09,3.31-4.08c2.04-0.09,4.1-0.39,6.15-0.16c2.45,3.05,1.57,7.94-2.08,9.69c0.08,0.77,0.25,2.29,0.34,3.06
				c4.14-5.22,7.59-10.95,10.73-16.81c8.41-14.88,21.75-26.46,36.55-34.72c14.28-7.03,29.78-11.57,45.59-13.41
				c10.22-1.25,20.6-0.42,30.68,1.51C1192.42,1597.97,1191.92,1595.79,1193.13,1594.16z"/>
			<path class="st0" d="M1202.09,1614.91c0.34-1.62,0.71-3.23,0.99-4.84c3.45,10.4,4.76,21.37,6.53,32.15
				c0.88,6.29,2.18,12.54,2.52,18.9c0.4,7.23,1.68,14.38,1.86,21.63c0.74,24.07-0.14,48.16-1.42,72.2
				c-0.28,13.87-2.04,27.69-1.77,41.58c0.12,13.81-0.1,27.62,0.4,41.42c0.16,8.16,1.01,16.29,0.92,24.46
				c0.24,11.62,0.99,23.2,1.45,34.82c0.19,5.29,1.12,10.52,2.29,15.7c1.31,5.23-0.31,10.56-1.34,15.7
				c-1.73,8.25-3.7,16.45-5.35,24.72c-1.98,8.36-2.03,17.02-3.9,25.42c-0.17-0.93-0.33-1.83-0.5-2.71
				c-1.45,7.99-3.44,16.88-10.38,21.98c-4.13,3.94-10.2,4.2-15.54,3.4c-10.88-1.77-21.33-6.07-32.46-6.23
				c-7.04-0.47-14,0.89-21.02,0.99c7.56-11.46,13.99-23.66,19.41-36.27c3.75-8.85,6.69-18.09,8.22-27.57
				c0.66-11.01,0.42-22.52-4.31-32.71c-7.5-15.86-13.27-32.52-21.48-48.05c-4.37-9.12-9.51-17.83-13.48-27.13
				c-6.88-14.55-12.91-29.49-20.08-43.9c-5.21-12.24-10.27-24.54-15.04-36.96c5.93-5.5,9.93-12.61,15.11-18.74
				c5.05-6.46,11.78-11.39,18.91-15.33c12.29-6.99,25.55-12.9,35.82-22.85c11.04-12.27,11.19-30.19,20.7-43.38
				C1176.83,1630.57,1189.67,1622.44,1202.09,1614.91z"/>
			<path class="st1" d="M711.29,1647.8c19.6-4.55,39.46-8.59,59.62-9.31c12.64-0.78,25.3-0.32,37.93,0.2
				c2.92,0.29,6.23,0.16,8.67,2.06c2.27,1.88,1.49,5.14,1.48,7.72c-1.98,25.04-3.94,50.1-7.52,74.97
				c-9.03-0.29-18.08-0.17-27.06,0.87c-8.5,0.89-17.28,0.6-25.34-2.49c-9.82-3.04-17.88-9.89-27.58-13.18
				c-8.97-2.42-18.68-1.99-27.45,1.05c-11.93,3.99-22.54,11.02-34.31,15.42c-0.14-0.48-0.44-1.42-0.59-1.89
				c-1.33-8.88-1.13-17.93-2.01-26.87c-0.74-6.92,0.84-14.03-1.08-20.8c2.17-6.74,0.69-13.93,1.81-20.8
				c0.54-2.28,4.18-2.21,4.68,0.07c0.57,3.97,0.17,8,0.29,12c5.65-3.7,11.04-7.86,17.11-10.88
				C696.77,1652.55,703.84,1649.53,711.29,1647.8z"/>
			<path class="st0" d="M704.05,1709.69c8.78-2.99,18.47-3.47,27.45-1.05c9.7,3.29,17.76,10.14,27.58,13.18
				c8.06,3.1,16.84,3.38,25.34,2.49c8.98-1.04,18.03-1.16,27.06-0.87c-3.21,27.05-10.94,53.25-19.2,79.12
				c-3.35,12.03-8.2,23.56-12.05,35.42c-4.05,13.26-7.51,26.72-9.68,40.43c-4.68,28.3-7.88,57.25-4.36,85.89
				c0.63,6.54,0.45,13.16,1.5,19.68c0.52,3.38,0.7,6.83,0.69,10.28c-6.95-0.79-13.95-1.3-20.94-0.72c-4.84,0.37-9.58-1.07-14.4-0.98
				c-9.36-0.09-18.32,2.85-27.35,4.89c-6.19,1.43-12.47,2.36-18.77,3.18c7.91-15.13,12.11-31.9,14.25-48.75
				c0.38-12.16,0.27-24.39-1.18-36.47c-2.73-18.47-7.36-36.57-11.09-54.84c-6.67-29.46-13.3-59.09-15.32-89.31
				c-1.24-16.04-3.21-32.01-4.41-48.05c0.14,0.47,0.44,1.41,0.59,1.89C681.51,1720.71,692.14,1713.74,704.05,1709.69z"/>
			<path class="st2" d="M1204.78,1976.06c0.16,0.88,0.32,1.78,0.5,2.71c-1.27,9.02-2.18,18.1-2.7,27.21
				c-0.32,4.7-2.55,8.93-4.07,13.31l-0.4,0.14c-12.18,4.75-25.42,5.01-38.24,6.62c-13.75,1.72-27.65,2.57-41.5,1.71
				c-3.72-0.17-7.33-1.12-10.84-2.27l-0.44-0.14c1.65-4.21,2.89-8.75,6.03-12.13c4.62-5.28,8.09-11.42,12.27-17.02
				c7.02-0.1,13.98-1.46,21.02-0.99c11.13,0.15,21.58,4.46,32.46,6.23c5.34,0.79,11.41,0.53,15.54-3.4
				C1201.34,1992.94,1203.32,1984.05,1204.78,1976.06z"/>
			<path class="st2" d="M705.68,1997.45c9.02-2.06,17.99-4.98,27.35-4.89c4.83-0.09,9.57,1.35,14.4,0.98
				c6.99-0.58,13.99-0.07,20.94,0.72l0.62,0.06c1.05,4.81,1.62,9.71,2.35,14.59c0.52,3.64,1.44,7.27,1.31,11
				c-2.9,4.03-7.72,5.73-12.4,6.58c-14.57,3.12-29.4,5.42-44.33,5.28c-12.19-0.21-25.23,0.59-36.27-5.51
				c1.4-5.24,1.45-10.79,3.46-15.87c1.26-3.26,1.95-6.81,3.81-9.78C693.21,1999.81,699.49,1998.87,705.68,1997.45z"/>
			<path class="st3" d="M1159.87,2026.06c12.82-1.61,26.06-1.88,38.24-6.62c-1.48,4.22-5.42,6.66-9.39,8.21
				c-3.01,0.57-5.97,1.27-9,1.71c-3.62,0.66-7.23,1.35-10.88,1.81c-8.35,1.16-16.75,1.65-25.18,1.65
				c-6.54,1.17-13.22,0.74-19.83,0.83c-4.79,0.22-9.51-1.11-13.8-3.12c-1.9-1-2.32-3.14-2.51-5.05c3.51,1.16,7.12,2.1,10.84,2.27
				C1132.21,2028.64,1146.11,2027.79,1159.87,2026.06z"/>
			<path class="st3" d="M760.25,2026.51c-14.57,3.12-29.4,5.42-44.33,5.28c-12.19-0.21-25.23,0.59-36.27-5.51l-0.32-0.15
				c0.14,1.71-0.27,3.75,1.17,5.09c3.45,3.21,8.12,4.84,12.73,5.42c4.09,1.27,8.42,1.13,12.64,1.54c9.85,0.99,19.62-1.12,29.45-1.24
				v-0.57c10.55-0.08,20.98-2.13,31-5.28c2.41-0.76,4.51-2.17,5.7-4.47c0.19-2.24,0.48-4.49,0.61-6.71
				C769.75,2023.95,764.93,2025.66,760.25,2026.51z"/>
		</g>
		<g>
			<path class="st4" d="M951.53,323.74c8.64-7.24,20.15-11.76,31.44-10.1c9.9,1.58,15.5,11.44,25.09,13.73
				c3.72,1.1,7.85,0.99,11.33-0.87c6.97-3.53,13.4-8.83,21.44-9.65c4.32-0.51,8.33,1.67,11.91,3.82c5.52,3.61,7.58,10.4,12.25,14.84
				c4.06,2.8,9.17,1.22,13.67,0.72c7.79-1.33,15.9,1.94,21.34,7.5c5.6,5.54,6.79,13.84,7.18,21.35c0.54,7.82-3.86,15.51-1.01,23.21
				c1.94,4.07,4.93,7.54,8.13,10.67c5,6.44,6.53,15.39,4.37,23.2c-1.87,7.04-9.5,10.11-12.27,16.62
				c-2.78,6.37-2.02,13.68,0.16,20.12c2.09,6.53,3.56,14.21-0.13,20.47c-3.24,5.59-9.74,7.72-14.31,11.9
				c-3.47,3.77-1.43,9.25-2.06,13.8c-1.05,6.76-4.4,13.39-10,17.48c-5.31,4.32-11.65,7.48-18.47,8.38
				c-11.09,1.58-22.58,2.21-33.48-0.88c-10.47-2.31-19.64-9.33-30.61-9.46c-9.58,0.61-17.63,7-23.58,14.11
				c-8.64,10.12-17.11,20.38-26.06,30.24c-5.68-0.6-11.39-1.72-17.1-1.34c-4.62,2.96-9.95,4.75-15.43,5.05
				c-3,0.07-5.55-1.9-6.57-4.64c-12.32,3.1-24.81,5.77-36.63,10.54c-13.5,5.53-27.05,11.18-39.45,18.94
				c-5.31-3.47-9.72-8.17-13.24-13.4c-2.08-3.06-3.6-6.5-6.12-9.23c-4.89-5.01-12.07-7.72-19.03-7.1
				c-13.71,2.12-24.9,11.96-38.77,13.42c-7.95,1.25-16.7,1.17-23.66-3.37c-9-5.62-14.61-14.92-21.98-22.28
				c-5.82-5.68-14.53-7.76-22.4-6.12c-7.33,1.52-14.59,3.75-22.14,3.69c-8.58,0.59-18.08,0.14-25.04-5.55
				c-7.23-6-9.91-15.41-13-23.9c-1.47-4.05-3.19-9.01-7.77-10.37c-11.19-3.36-22.51,0.91-33.55,2.73
				c-6.71,1.25-14.56-0.93-18.31-6.96c-3.84-6.56-3.08-14.49-2.68-21.76c0.14-3.25,0.13-7.68-3.55-9.03
				c-10.79-4.63-22.12,3.4-33.02-0.27c-4.95-1.62-10.21-4.03-12.74-8.88c-3.33-6.35-6.4-13.29-5.68-20.64
				c-0.06-6.24,2.55-12,5.27-17.46c4.71-8.6,15.33-11.74,24.57-11.62c7.03-0.38,13.74,4.01,20.75,2.02
				c7.36-2.38,13.13-8.25,16.56-15.05c5.12-9.61,10.13-19.48,17.66-27.47c7.11-7.83,17.61-12.1,28.07-12.69
				c6.49-0.57,12.73,2.14,18.19,5.41c6.73,4.01,10.76,11.46,18.01,14.72c9.08,3.66,19.93,1.14,26.93-5.57
				c9.68-9.35,16.36-21.6,27.39-29.59c14.89-11.34,35.9-15.12,53.34-7.71c6.77,2.64,12.55,7.09,18.31,11.43
				c5.97,4.52,13.78,5.17,21.01,4.81c8.23-0.5,16.24-3.1,23.53-6.89c10.97-5.78,21.32-12.76,32.63-17.92
				c9.05-3.64,19.36-5.93,28.93-2.97c3.62,0.98,6.73,3.15,9.75,5.3c8.38,6.12,19.67,8.48,29.68,5.57
				C939.09,336.23,944.96,329.24,951.53,323.74z"/>
			<path class="st5" d="M915.33,568.65c5.49-0.22,10.81-2.08,15.43-5.05c5.71-0.39,11.43,0.73,17.1,1.34
				c10.65,1.38,21.39,1.94,32.1,2.73c16.27,1.67,32.64,2.49,48.99,2.66c16.58,0.26,33.1,2.19,49.68,1.85
				c9.38-0.18,18.74,0.54,28.11,0.74c0.46-0.31,1.39-0.91,1.86-1.22c2.85,1.05,5.8,1.81,8.88,1.77
				c18.35,5.35,33.62,17.52,47.85,29.84c11.81,11.03,23.08,22.68,33.24,35.25c9.4,12.63,19.62,24.68,27.79,38.18
				c7.83,13.31,15.34,26.86,21.13,41.2c1,2.89,3.15,5.62,2.74,8.82c-11.76,0.69-23.66,1.71-34.95,5.25
				c-9.26,3.3-18.47,6.93-27.09,11.69c-0.03,7.18,0.71,14.44-0.73,21.53c-1.56,13.49-6.73,26.33-13.71,37.89
				c-5.59,8.35-11.88,16.59-20.68,21.78c-8.38,4.38-15.76,11.41-25.57,12.39c-4.45,10.32-7.8,21.07-11.55,31.66
				c-3.08,7.48-5.27,15.28-7.74,22.97c-1.69,4.74,0.75,9.58,2.97,13.68c4.6,7.26,8.87,14.73,12.96,22.29
				c4.95,9.06,8.82,18.66,13.87,27.68c7.05,12.51,11.09,26.35,16.04,39.76c3.92,11.88,8.52,23.55,11.66,35.68
				c1.98,7.61,4.45,15.08,6.12,22.77c3.92,18.67,7.35,37.47,9.21,56.48c2.73,26.17,4.3,52.52,3.7,78.85
				c-0.69,20.44-0.47,40.91-1.54,61.34c-1.1,26.25-3.74,52.4-5.79,78.59c-1.25,12.89-1.59,25.85-3.1,38.72
				c-1.34,16.51-4.11,33.02-2.64,49.62c1.07,13.08,3.76,25.95,6.2,38.82c2.05,10.7,3.75,21.49,6.95,31.92
				c4.38,14.39,7.05,29.21,10.5,43.82c3.11,10.94,5.31,22.12,6.76,33.4c2.64,13.6,3.95,27.5,3.36,41.35
				c0.48,2.27-1.73,3.57-3.49,4.36c-6.9,3.22-14.02,5.9-21.04,8.8c-16.65,7.55-32.9,15.99-49.56,23.52
				c-13.37,6.38-26.36,13.49-39.83,19.67c-17.19,8.15-35.2,14.52-53.57,19.45c-24.28,7.01-49.48,11.39-74.8,11
				c-15.05-0.12-30.14-0.49-45.09-2.38c-14.26-2.11-28.4-5-42.45-8.25c-19.05-4.47-37.76-10.29-56.81-14.75
				c-13.11-3.1-26.52-4.6-39.76-6.99c-17.93-3.16-36.43-2.25-54.2,1.47c-17.85,4.03-34.55,13.61-53.23,13.4
				c-8.43-0.08-16.82,0.9-25.24,0.62c-11.58-0.23-23.37-0.03-34.57-3.38c-9.82-1.71-18.84-6.35-27.04-11.87
				c-5.21-3.86-10.98-6.93-15.88-11.21c-6.96-5.39-12.42-12.36-17.92-19.15c-10.6-12.92-17.46-28.45-28.38-41.12
				c-4.36-4.95-8.75-9.92-13.87-14.09c-11.53-9-23.48-17.82-37.17-23.27c-12.53-4.83-25.68-8.43-39.14-8.98
				c-9.95,0.05-19.96-0.03-29.79,1.69c-8.62,1.54-17.4,1.71-26.13,1.7c-10.03-0.08-20.22,0.58-30.04-1.93
				c-7.22-1.9-14.64-3.35-21.44-6.52c-6.67-3.04-12.96-6.84-19.08-10.84c-7.86-4.88-15.92-9.71-22.36-16.44
				c-4.86-5.04-10.47-9.39-14.4-15.23c-2.98-4.54-6.83-8.48-9.28-13.36c-1.68-3.27-2.79-6.79-4.4-10.08
				c-1.57-3.29-3.55-6.44-4.29-10.05c-0.71-3.07-0.37-6.36-1.77-9.25c-6.71-15.03-12.12-31.07-22.9-43.81
				c-15.78-16.53-38.5-23.46-55.69-38.15c-7.41-6.65-13.23-14.9-17.96-23.62c-5.19-9-9.62-18.57-11.6-28.83
				c-3.98-17.38-1.45-35.43,2.82-52.5c2.94-11.84,7.31-23.25,11.35-34.75c4.31-13.46,8.78-27.29,8.1-41.61
				c-0.47-11.02-2.55-22.15-7.77-31.96c-5.97-11.55-16.06-20.05-24.74-29.46c-6.08-6.73-11.6-14.02-16.03-21.94
				c-7.07-13.23-8.72-28.43-10.51-43.09c-0.58-8.87-2.49-17.59-4.91-26.12c-1.17-3.68-4.16-8.2-1.04-11.71
				c3.25-3.65,7.38-6.44,11.35-9.26c8.08-4.03,15.05-9.96,23.23-13.79c9.79-4.67,20.37-7.9,31.23-8.62
				c10.6-0.32,21.44,1.4,30.97,6.22c6.9,3.37,13.06,7.99,19.59,12.01c4.32,2.94,8.91,5.8,14.18,6.6c9.68,1.46,19.89,0.15,28.61-4.4
				c9.08-4.34,15.79-12.14,24.38-17.25c9.84-5.85,19.44-12.13,29.77-17.1c8.01-3.82,16.9-6.06,25.8-5.53
				c15.46,0.72,31.42,2.8,45.13,10.46c10.11,6.06,19.23,14.04,25.51,24.1c5.97,9.6,11.88,19.26,18.54,28.41
				c6.05,8.2,15.09,14.84,25.53,15.56c13.73,1.09,27.33-3.81,38.8-11.08c12.34-8.49,23.52-18.51,34.38-28.8
				c11.22-10.13,21.25-21.45,31.99-32.05c13.5-13.02,27.09-25.97,41.32-38.2c24.22-19.47,47.58-40.1,73.54-57.28
				c13.69-9.85,27.96-18.93,43.11-26.37c15.74-7.62,31.28-15.79,47.78-21.7c6.55-2.34,13.25-4.22,19.88-6.31
				c5.36-1.57,10.33-4.18,15.6-6.02c1.78-8.74,3.77-17.43,5.52-26.17c-6.44-5.59-13.01-11.22-17.79-18.37
				c-1.24-2.03-2.22-4.22-3.68-6.11c-4.11-5.23-6.35-11.62-8.14-17.95c-2.42-8.45-2.9-17.36-2.18-26.08
				c0.5-5.68,0.61-11.45,2.24-16.95c0.92-3.45,2.78-6.6,3.39-10.13c-1.19-2.06-3.63-3.04-5.3-4.69c-3.2-3.08-7.31-4.86-11.35-6.53
				c-4.61-1.83-9.23-3.84-14.22-4.32c-1.48-0.05-2.75-1.14-3.31-2.45c2.67-5.46,6.77-10.05,10.26-15
				c9.36-11.91,19.41-23.27,29.25-34.78c6.69-7.73,14.32-14.53,21.95-21.31c7.92-8.38,17.6-14.75,27.23-20.97
				c12.4-7.76,25.95-13.41,39.45-18.94c11.82-4.77,24.31-7.45,36.63-10.54C909.78,566.75,912.34,568.77,915.33,568.65z"/>
		</g>
		<g>
			<path class="st6" d="M1115.97,582.56c-1.72,14.83-5.34,29.87-13.91,42.41c-5.66,8.28-14.21,13.75-22.52,18.96
				c-20.29,12.17-44.45,15.1-67.67,15.73c-18.5,0.37-37.25-0.68-55.13-5.63c-8.82-2.44-17.84-5.33-25.09-11.18
				c-7.61-5.91-14.22-13.16-18.99-21.56c-3.74-6.74-5.79-14.29-6.86-21.89c-1.38-10.69-1.89-21.78,1.12-32.25
				c0.22-2.12,2.47-2.66,4.13-3.29c8.62-2.75,17.04-6.11,25.26-9.87c8.93-4.13,17.96-9.82,22.74-18.7
				c2.31-6.35,3.41-13.67,1.29-20.2c-4.75-7.38-8.64-15.29-11.53-23.59c-1.88-9.95-4.62-25.77-5.77-32.45
				c1.44-0.69,2.81-1.54,4.09-2.62c5.88-4.38,6.4-12.54,11.32-17.61c4.05-4.14,11.04-2.21,14.69-6.86
				c3.98-4.42,3.97-10.68,5.7-16.07c1.61-4.97,6.35-8.02,10.99-9.8c4.09-1.7,8.93-2.47,11.95-6.03c4.84-5.76,8.12-13.02,8.41-20.6
				c0.28-5.6,0.51-11.43,3.2-16.51c1.31-2.46,3.37-4.36,5.44-6.15c1.68,3.12,3.28,6.68,6.62,8.37c3.29,1.6,7.03,2.52,10.69,1.83
				c5.12-0.93,11.14,0.36,14.42,4.67c3.18,4.41,1.58,10.07,2.05,15.09c0.14,1.53,1.41,2.82,2.92,3.11
				c4.07,0.82,8.61-0.14,12.28,2.32c4.7,3.16,6.65,8.89,6.75,14.33c-0.02,5.75,5.68,8.43,8.88,12.34c2.08,2.07,3.03,4.88,3.71,7.67
				c1.54,12.02,1.85,31.41-0.14,46.56c-1.17,9.15-4.53,17.81-7.33,26.55c-2.06,5.8-4.51,11.45-7.49,16.84
				c-1.75,2.77-1.11,6.12-0.93,9.2c0.58,6.91,0.89,14.2,4.29,20.39c3.32,6.06,8.79,10.7,14.74,14.12
				c8.11,4.73,16.47,9.12,24.18,14.52C1117.05,576.53,1115.92,579.94,1115.97,582.56z"/>
			<path class="st6" d="M1258.35,773.04c-0.55-6.94-0.58-13.93-1.71-20.81c-1.62-9.07-3.1-18.29-6.6-26.86
				c-4.03-1.26-8.35-1.46-12.53-0.99c-10.24,0.97-20.08,4.11-29.85,7.12c-6.44,2.05-12.38,5.36-17.95,9.12
				c-3.84,2.59-1.83,7.8-2.1,11.63c0.86,8.14-0.94,16.17-2.95,24c-2.39,9.31-6.71,18.02-11.43,26.37
				c-3.47,5.9-7.51,11.62-12.9,15.94c-7.38,6.59-16.43,10.81-24.96,15.67c-1.53,0.93-2.27,2.67-2.92,4.27
				c-3.89,9.51-6.73,19.44-9.37,29.38c-4.76,15.96-10.22,31.77-17.47,46.78c-4.68,9.92-11.03,18.89-16.81,28.18
				c-7.49,12.03-15.56,23.69-22.64,36c-7.97,13.87-15.39,28.04-22.94,42.15c-8.29,16.22-16.62,32.43-23.97,49.1
				c-6.74,14.36-13.75,28.59-19.94,43.2c-3.29,8.05-5.5,16.49-8.98,24.47c-2.92,8.46-7,17.3-4.76,26.44
				c-0.08,0.03-0.15,0.07-0.23,0.1c1.22,2.58,1.75,5.53,1.58,8.39c0.02-0.01,0.03-0.02,0.05-0.03c0.83,4.57,1.16,10.02,5.08,13.15
				c0.51-1.3,1.13-2.51,1.79-3.72c1.17-1.05,2.39-2.03,3.58-3.04c1.36,4.18,3.23,8.77,7.28,11.02c2.36,1.26,5,0.2,7.03-1.21
				c1.49,2.64,3.49,5.2,6.53,6.17c5.17,1.65,10.32-1.18,14.36-4.15c1.84,2.87,4.12,6.68,8.1,6.27c3.94,0.03,5.01-5.52,9.03-5.21
				c4.03-0.19,7.62-2.43,10.6-4.99c2.32-2.92,4.09-6.25,6.51-9.1c0.07,0.06,0.12,0.12,0.19,0.18c1.21-4.01,2.46-8.02,3.39-12.03
				c-0.02-0.01-0.03-0.02-0.05-0.03c-2.29-14.23-2.55-28.83-0.27-43.07c0.35-2.33,1.35-4.52,2.88-6.31
				c23.57-28.93,52.02-53.3,77.24-80.72c12.08-12.74,22.94-26.56,33.33-40.68c14.7-19.97,26.81-41.72,38.44-63.61
				c17.41-32.94,29.96-68.77,33.99-105.94C1258.37,808.23,1259.99,790.6,1258.35,773.04z"/>
			<path class="st2" d="M1080.53,1204.26c4.85,24.41,2.58,49.7-3.23,73.75c-10.05-3.29-20.7-3.71-31.16-4.32
				c-24.35-0.77-48.7-1.1-73.06-1.18c-7.5-0.13-14.96,0.83-22.3,2.31c-2.64-20.02-4.08-41.04,2.51-60.48
				c2.18-6.8,4.41-13.69,8.08-19.85c3.03-4.12,6.38-8.04,9.98-11.68c4.72-4.02,13.56-10.58,25.96-13.99c0.17-2.86,0-6-0.27-8.72
				c-25.35,4.63-38.84,21.17-45.72,35.3c-3.02,6.2-4.94,12.86-6.65,19.52c-5.65,20.02-5.23,41.17-3.1,61.68
				c-5.36,6.31-8.72,13.95-12.24,21.35c-3.28,6.84-6.01,13.91-8.65,21.01c-6.68,18.88-13.19,37.96-16.22,57.83
				c-0.5,5.6-1.3,11.62,1.16,16.9c3.9,8.32,11.18,15.06,19.94,17.99c7.05,2.79,14.7,3.04,22.18,3.59
				c15.32,1.26,30.73,1.79,46.07,0.55c18.03-1.45,36.15-1.64,54.19-3.01c13.7-1.03,27.5-1.81,40.9-5.04c3.21-0.79,6.3-2.67,7.8-5.72
				c3.42-6.68,3.38-14.4,3.73-21.72c0.65-14.48-0.2-28.97-1.65-43.38c-1.37-8.36-2.74-16.72-4.27-25.05
				c-2.12-8.91-3.78-18.1-8.14-26.26c3.49-10.25,6.25-20.79,7.58-31.55c2.58-18.98,0.5-38.28-3.72-56.87
				c-1.92-7.93-4.79-15.91-10.18-22.18c-2.88-3.33-5.54-7.06-9.59-9.05c-0.93,4.01-2.18,8.02-3.39,12.03
				C1074.56,1184.87,1077.9,1194.74,1080.53,1204.26z"/>
			<path class="st7" d="M1251.43,729.12c-0.43-1.26-0.89-2.51-1.39-3.75c-4.03-1.26-8.35-1.46-12.53-0.99
				c-10.24,0.97-20.08,4.11-29.85,7.12c-6.44,2.05-12.38,5.36-17.95,9.12c-3.84,2.59-1.83,7.8-2.1,11.63
				c0.86,8.14-0.94,16.17-2.95,24c-2.39,9.31-6.71,18.02-11.43,26.37c-3.47,5.9-7.51,11.62-12.9,15.94
				c-7.38,6.59-16.43,10.81-24.96,15.67c-1.53,0.93-2.27,2.67-2.92,4.27c-3.89,9.51-6.73,19.44-9.37,29.38
				c-2.2,7.37-4.55,14.71-7.15,21.95c7.93-14.44,21.12-31.78,41.87-42.15c40.48-20.24,35.58-91.39,35.58-91.39
				s4.91-4.91,14.72-12.88C1217.42,735.84,1226.74,733.24,1251.43,729.12z"/>
			<path class="st8" d="M1114.7,448.07c-3.04,12.99-15.13,22.12-27.69,25.02c1.99-15.15,1.68-34.54,0.14-46.56
				c4.3-3.15,9.72-5.06,15.08-4.11c4.73,0.75,8.89,3.9,11.25,8.01C1116.21,435.85,1116.4,442.29,1114.7,448.07z"/>
			<path class="st8" d="M948.82,491.51c-8.58-0.36-18.25-0.67-25.07-6.63c-1.4-1.17-2.71-2.51-3.82-3.98l-2.91-5.09
				c-0.55-1.41-0.92-2.88-1.08-4.41c0.72-1.91,2.3-3.32,3.88-4.54c6.8-4.97,15.89-4.28,23.24-7.79
				C944.2,465.74,946.95,481.56,948.82,491.51z"/>
		</g>
		<g>
			<path class="st9" d="M968,326.65c6.32-2.34,13.27-0.75,19.36,1.55c4.69,1.79,9.57,2.98,14.42,4.23
				c-10.25-0.77-19.82-6.96-30.32-5.01c-5.88,0.95-9.73,5.78-14.1,9.3c-4.24,3.4-9.29,5.77-14.58,6.93c4.23-2.23,8.6-4.3,12.37-7.3
				C959.44,333.14,962.83,328.57,968,326.65z"/>
			<path class="st9" d="M1027.37,333.73c3.83-3.26,7.94-7.31,13.39-7.01c5.04,0.28,8.43,4.44,12.16,7.3
				c2.66,2.31,5.91,3.74,9.01,5.37c-7.27-1.29-12.16-7.27-18.49-10.43C1037.58,326.64,1032.31,331.33,1027.37,333.73z"/>
			<path class="st9" d="M970.49,338.37c5.91-2.22,12.16-4.12,18.54-3.66c-7.43,1.35-15.06,2.73-21.62,6.7
				c-4.73,3.07-8.65,7.51-14.11,9.34c-3.01,1.13-6.25,1.36-9.42,1.23c4.04-1.21,8.32-1.96,11.99-4.16
				C960.92,344.94,964.96,340.44,970.49,338.37z"/>
			<path class="st9" d="M1029.96,339.78c3.85-1.76,7.86-3.45,12.12-3.97c-5.96,2.41-12.01,4.76-17.18,8.66
				C1026.18,342.53,1027.8,340.76,1029.96,339.78z"/>
			<path class="st9" d="M1046.55,336.97c6.99,1.47,9.75,9.13,15.98,11.9c4.48,2.58,9.81,1.76,14.75,2.31
				c-6.25,0.11-13.35,1.02-18.47-3.41C1054.78,344.11,1051.56,339.47,1046.55,336.97z"/>
			<path class="st10" d="M848.67,351.69c7.92-5.65,15.7-13.35,26.03-13.54c8.92-0.4,16.16,5.4,24.2,8.23
				c3.94,1.76,8.17,2.53,12.39,3.19c-8.2,0.6-15.73-3.22-23.16-6.13c-6.14-2.91-13.43-4.63-20-2.15
				c-9.07,3.05-15.35,10.85-23.92,14.83c-3.98,2.04-8.26,3.47-12.65,4.26C837.44,357.86,843.43,355.43,848.67,351.69z"/>
			<path class="st9" d="M989.67,341.21c3.18-1.14,7.16-2.28,10.07,0.14c-11.39-0.12-21.44,6.09-30.04,12.95
				C974.86,348.05,982.16,343.92,989.67,341.21z"/>
			<path class="st9" d="M995.57,356.82c3.82-7.13,9.21-15.09,17.83-16.61c-2.74,1.56-5.74,2.69-8.19,4.72
				C1001.11,348.09,998.65,352.79,995.57,356.82z"/>
			<path class="st9" d="M1071.73,344.88c5.45-0.45,11.11-1.55,16.5-0.08c5.06,1.36,8.36,6.34,9.03,11.35
				c0.67,5.65,0.79,11.4,0.12,17.06c-0.56-7.06-0.16-14.48-3.12-21.09c-1.76-3.98-6.01-6.29-10.23-6.46
				C1079.91,345.55,1075.72,346.05,1071.73,344.88z"/>
			<path class="st10" d="M741.51,346.69c9.33-1.91,18.03,3.3,26.02,7.45c5.42,2.93,11.51,4.31,16.92,7.2
				c-9.05-1.56-17.34-5.74-25.64-9.47c-6.12-2.5-13.1-4.86-19.6-2.27c-9.77,3.58-15.85,12.46-22.73,19.72
				c-6.1,5.78-13.2,10.55-20.86,14.01c7.71-6.28,16.44-11.53,22.74-19.36C724.59,356.61,731.68,348.7,741.51,346.69z"/>
			<path class="st9" d="M1000.69,359.94c2.95-6.11,7.77-12.32,14.62-14.11c-2.88,2.26-6.1,4.07-8.7,6.67
				C1004.25,354.67,1002.6,357.42,1000.69,359.94z"/>
			<path class="st9" d="M1025.25,349.83c6.92-5.61,16.81-3.34,24.43-0.5c-4.7-0.88-9.41-2.1-14.24-1.74
				C1031.91,347.63,1028.61,348.94,1025.25,349.83z"/>
			<path class="st9" d="M918.07,350.43c6.86,0.14,13.66-0.64,20.49-1.16C931.98,351.25,924.77,352.33,918.07,350.43z"/>
			<path class="st9" d="M880.97,353.22c1.74-0.45,3.53-1.14,5.38-0.89c11.75,1.29,22.45,7.51,34.35,7.98
				c3.02,0.14,5.89-1.06,8.86-1.47c-5.79,4.18-13.08,2.77-19.55,1.42C900.13,358.64,891.18,353.08,880.97,353.22z"/>
			<path class="st9" d="M1031.4,354.82c5.57,0.59,11.07-1.86,16.61-0.42c4.16,0.85,7.76,3.35,10.74,6.3
				c-3.58-2.41-7.31-5.21-11.81-5.35C1041.74,354.5,1036.35,357.27,1031.4,354.82z"/>
			<path class="st9" d="M1059.02,353.35c7.64,5.16,17.67,5.33,24.4,12.17c-4.73-3.17-9.93-5.44-15.39-6.98
				C1064.59,357.67,1061.62,355.66,1059.02,353.35z"/>
			<path class="st9" d="M1024.59,356.05c0.3,0.05,0.88,0.16,1.17,0.22c4.24,5.72,11.81,4.96,18.06,5.77
				c-4.11,0.14-8.29,0.42-12.34-0.37C1028.38,361.05,1026.34,358.48,1024.59,356.05z"/>
			<path class="st9" d="M942.95,364.48c6.76-2.51,13.3-5.54,19.5-9.27C956.72,359.67,950.03,362.92,942.95,364.48z"/>
			<path class="st9" d="M853.49,364.79c5.16-2.68,10.39-5.27,15.95-7.05c-4.07,2.09-8.35,3.68-12.33,5.93
				c-7.59,3.95-13.89,10.13-22.02,13.06c-6.52,2.27-13.41,4.38-20.38,3.57c8.17-1.8,16.57-3.11,24.17-6.8
				C844.02,371.09,848.45,367.41,853.49,364.79z"/>
			<path class="st9" d="M988.76,358.68c0.54,3.65,0.88,7.68-1.24,10.92c-3.65,6.24-10.28,9.88-16.07,13.79
				c5.24-4.59,12.07-8.01,15.38-14.46C988.63,365.82,988.09,362.1,988.76,358.68z"/>
			<path class="st9" d="M1082.02,358.84c4.35,0.15,7.35,3.7,8.79,7.47c2.05,4.43,1.23,9.42,1.18,14.13
				c-0.17,3.58,0.78,7.09,0.81,10.66c-3.57-8.22-0.24-17.71-4.56-25.69C1087,362.56,1084.31,360.79,1082.02,358.84z"/>
			<path class="st9" d="M970.5,368.03c2.87-2.29,4.78-5.47,7.44-7.98c-2.85,6.51-8.7,11.53-15.61,13.23
				c-6.99,1.73-13.74,4.27-20.08,7.68c4.86-3.28,10.34-5.51,15.93-7.23C962.49,372.39,966.89,370.9,970.5,368.03z"/>
			<path class="st11" d="M745.01,362.79c10.48-1.86,20.91,2.02,30.06,6.73c-6.13-1.91-12.08-4.68-18.55-5.26
				c-6.36-0.53-13.31-0.05-18.71,3.72c-3.25,2.13-5.64,5.24-8.24,8.06C731.95,369.33,737.94,364.04,745.01,362.79z"/>
			<path class="st9" d="M1062.91,363.64c4.02,3.86,5.38,9.49,8.69,13.85c1.32,1.75,2.88,3.31,4.22,5.05
				C1069.25,378.1,1066.04,370.61,1062.91,363.64z"/>
			<path class="st9" d="M870.78,369.23c7.24-2.03,14.66-4.09,22.25-4.01c-3.57,1.36-7.43,1.68-11.11,2.62
				c-7.28,1.8-14.6,3.95-21.08,7.81c-4.12,2.4-7.31,6.14-11.65,8.19c-3.28,1.75-6.94,2.54-10.6,2.95c5.7-1.93,11.32-4.54,15.78-8.69
				C858.96,373.77,864.73,370.93,870.78,369.23z"/>
			<path class="st9" d="M993.61,378.31c2.84-3.81,3.89-8.48,5.66-12.8c0.03,11.4-9.7,20.17-19.68,23.88
				C984.73,386.38,989.98,383.18,993.61,378.31z"/>
			<path class="st9" d="M785.56,367.2c8.41,2.33,17.16,4.41,25.95,3.29c7.39-0.55,14.52-2.76,21.87-3.62
				c-9.72,2.87-19.73,5.83-29.96,5.47C797.27,371.67,790.71,370.9,785.56,367.2z"/>
			<path class="st9" d="M1050.78,365.73c2.13,1.43,4.46,2.89,5.69,5.25c2.29,4,0.4,9.5,4.25,12.78l5.38,3.38
				c-3.61-0.82-6.89-3.1-8.4-6.43c-1.04-2.57-1.15-5.39-2.05-7.99C1054.62,370.03,1052.5,367.97,1050.78,365.73z"/>
			<path class="st9" d="M1070.08,366.92c8.33,3.8,13.07,12.52,14.45,21.24c-1.68-3.99-2.86-8.24-5.38-11.81
				C1076.85,372.57,1073.31,369.83,1070.08,366.92z"/>
			<path class="st9" d="M1060.6,369.66c1.15,2.75,1.62,5.83,3.4,8.29c1.37,2.03,3.48,3.33,5.34,4.86
				C1063.89,381.19,1059.52,375.46,1060.6,369.66z"/>
			<path class="st10" d="M607.7,376.95c6.09-5.28,15.22-7.5,22.75-4.11c4.67,2.15,9.14,4.68,13.81,6.81
				c2.97,1.44,6.16,2.5,8.88,4.41c-9.07-2.04-17.01-7.23-25.81-10.02c-9.67-2.52-19.54,3.69-24.08,12.04
				c-4.86,8.05-9.03,17.95-18.16,21.95c4.13-4.54,8.2-9.22,11.18-14.63C599.7,387.69,602.29,381.17,607.7,376.95z"/>
			<path class="st9" d="M1003.19,382.57c1.7-3.63,1.96-7.67,2.96-11.5c0.24,5.48-0.71,11.28-4.24,15.67
				c-2.89,3.47-6.11,6.9-10.27,8.82C996.16,391.93,1000.69,387.92,1003.19,382.57z"/>
			<path class="st10" d="M881.32,379.16c2.92-3.79,7.55-6.02,12.34-5.92c13.34-0.26,26.43,2.74,39.61,4.25
				c-3.29,0.61-6.63,0.32-9.92-0.02c-9.88-0.86-19.75-2.22-29.67-2.43C889.16,374.82,885.09,376.95,881.32,379.16z"/>
			<path class="st9" d="M957.61,384.81c6.39-2.36,11.64-6.8,17.44-10.22c-3.5,4.3-8.33,7.22-12.98,10.11
				c-6.39,3.89-14.18,3.53-21.06,6c-3.29,1.1-5.76,3.65-8.64,5.47c2.12-2.51,4.35-5.09,7.39-6.52
				C945.38,386.95,951.79,386.97,957.61,384.81z"/>
			<path class="st9" d="M730.55,385.21c4.16-2.31,8.48-4.78,13.38-4.95c1.44-0.31,2.45,0.91,3.46,1.71
				c-8.19-1.46-14.68,4.62-22.03,6.87c-6.7,1.95-13.66,3.19-20.66,3.01C713.59,391.09,722.66,389.6,730.55,385.21z"/>
			<path class="st9" d="M758.78,383.16c4.68-4.03,11.07-3.63,16.71-2.47c9.35,1.52,17.72,6.54,27.15,7.71
				c7.08,0.85,14.37,1.22,21.4-0.2c0.05,0.16,0.12,0.48,0.16,0.64c-7.43,1.83-15.18,1.53-22.73,0.84c-8.81-0.8-16.61-5.42-25.2-7.13
				C770.49,381.18,764.29,380.38,758.78,383.16z"/>
			<path class="st9" d="M859.54,396.83c5.82-4.72,11.94-9.88,19.62-11c2.12-0.6,4.17,0.34,6.14,1.06c-2.92,0.09-5.89-0.13-8.68,0.84
				c-7.03,2.14-12.47,7.32-18.47,11.29c-5.59,3.66-11.25,7.31-17.47,9.79C847.11,405.08,853.73,401.54,859.54,396.83z"/>
			<path class="st9" d="M911.7,388.91c7.52,0.84,15.1-0.27,22.29-2.52c-5.21,2.71-11.16,3.44-16.92,3.9
				c-4.22,0.45-8.46-0.43-12.66,0.13c-3.37,0.36-6.49,1.75-9.77,2.52C899.38,389.05,905.79,388.25,911.7,388.91z"/>
			<path class="st11" d="M604.95,401.42c4.4-6.05,9.4-12.96,17.04-14.87c6.68-0.41,13.33,1.22,20.05,0.82
				c-6.25,1.84-12.84-0.2-19.14,1.08C615.39,390.41,611.56,397.99,604.95,401.42z"/>
			<path class="st9" d="M678.84,394.37c5.28-0.52,9.5-4,13.95-6.53c-4.46,5.33-11.32,8.85-18.38,8.04
				c-6.77-0.73-13.6-1.14-20.31-2.37C662.36,393.5,670.58,394.69,678.84,394.37z"/>
			<path class="st9" d="M950.68,417c0.02-11.18,4.96-24.31,16.56-27.94c-3.18,2.53-6.76,4.66-9.25,7.93
				C953.46,402.67,951.88,409.98,950.68,417z"/>
			<path class="st9" d="M1097.97,388.85c1.61,3.19,2.77,6.73,5.56,9.15c6.17,5.74,10.16,14.25,9.09,22.79
				c-0.67-4.86-1.65-9.74-4.25-13.97C1105.49,400.41,1097.55,396.7,1097.97,388.85z"/>
			<path class="st9" d="M1078.76,389.58c3.45,3.14,4.49,7.87,5.1,12.3C1082.61,397.59,1081.04,393.42,1078.76,389.58z"/>
			<path class="st9" d="M1091.14,401.37c-2.75-3.26-3.27-7.75-3.05-11.88c0.97,3.3,1.46,6.83,3.37,9.77
				c2.77,4.52,7.32,7.45,10.87,11.27C1098.2,408.04,1094.25,405.06,1091.14,401.37z"/>
			<path class="st10" d="M728.57,399.13c4.44-3.83,10.51-4.51,16.13-4.93c12.05-0.6,22.97,5.65,32.95,11.63
				c-6.28-2.2-12.04-5.73-18.47-7.52c-5.87-1.58-12.03-2.44-18.07-1.52C736.85,397.21,732.79,398.61,728.57,399.13z"/>
			<path class="st9" d="M832.28,399.45c4.1-1.11,7.63-3.51,11.16-5.79c-5.7,7.08-15.26,8.6-23.81,8.84
				c-7.12,0.18-14.31,0-21.29-1.52C809.62,401.02,821.19,402.47,832.28,399.45z"/>
			<path class="st9" d="M1074.03,393.22c1.54,1.44,3.47,2.78,4,4.96c0.68,3.04,0.43,6.29,1.71,9.2c1.27,3.14,3.7,5.57,5.7,8.24
				c-4.4-3.53-7.93-8.55-8.31-14.31C1076.98,398.31,1075.42,395.76,1074.03,393.22z"/>
			<path class="st9" d="M966.1,398.72c1.65-2.32,4.05-3.84,6.27-5.58c-3.1,3.11-6.44,6.27-7.82,10.58
				c-2.34,6.96-4.61,14.04-8.93,20.09c1.8-4.07,4.12-7.97,5.43-12.26C962.55,407.22,963.38,402.54,966.1,398.72z"/>
			<path class="st9" d="M628.8,399.88c2.36-1.18,4.84-2.45,7.57-2.24c5.77,0.27,11.54,0.82,17.28,1.48
				C645.42,400.59,637.01,397.74,628.8,399.88z"/>
			<path class="st9" d="M910.28,403.45c5.31-3.08,10.95-6.62,17.39-5.79c-7.25,1.23-13.5,5.16-19.91,8.49
				c-6.44,2.91-13.07,5.97-20.21,6.38C895.56,410.74,903.19,407.56,910.28,403.45z"/>
			<path class="st9" d="M931.98,404.44c5.19-3.02,10.68-6.01,16.72-6.77c-5.97,2.4-11.9,5.08-17.2,8.76
				c-5.36,3.7-7.71,10.27-12.97,14.1c-2.54,2.1-5.7,3.21-8.82,4.09c2.68-1.53,5.48-2.95,7.83-4.99
				C923.04,415.22,925.75,408.07,931.98,404.44z"/>
			<path class="st9" d="M869.66,401.6c5.57-2.03,11.66-1.94,17.51-1.51c-4.71,0.88-9.6,0.49-14.21,1.96
				c-5.95,1.48-10.55,5.7-15.61,8.85C861.01,407.29,864.71,403.4,869.66,401.6z"/>
			<path class="st11" d="M703.84,400.87c4.79-0.71,10.33-1.53,14.54,1.48c-3.57-0.2-7.17-0.92-10.72-0.16
				c-8.66,1.01-16.34,6.29-25.19,6.11c-5.42,0.17-10.7-1.93-14.91-5.25c4.44,0.72,8.43,3.38,13.05,3.25
				C688.8,406.92,695.93,402.04,703.84,400.87z"/>
			<path class="st9" d="M977.6,405.72c2.5-2.29,5.57-4.49,9.15-4.31c-2.78,1.65-5.87,2.9-8.2,5.2c-2.63,2.49-4.01,5.91-5.29,9.21
				c-2.36,6.24-5.43,12.3-9.96,17.27c2.32-3.78,5.05-7.41,6.62-11.61C972.08,416.09,973.13,409.83,977.6,405.72z"/>
			<path class="st12" d="M628.36,410.34c7.4-3.44,15.71-5.11,23.85-3.83l-0.11,1.16c-6.68-0.97-13.47,0.47-19.62,3.09
				c-5.13,2.23-10.1,5.51-15.88,5.58c-4.31,0.24-8.68-1.18-11.77-4.27c3.58,0.92,7.09,2.6,10.89,2.34
				C620.26,414.38,624.35,412.2,628.36,410.34z"/>
			<path class="st9" d="M1085.46,406.32c4.79,3.42,7.91,8.68,9.68,14.21C1092.71,415.27,1089.1,410.78,1085.46,406.32z"/>
			<path class="st9" d="M1102.28,406.67c5.16,3.68,5.57,10.8,4.77,16.54C1106.29,417.48,1105.08,411.79,1102.28,406.67z"/>
			<path class="st9" d="M770.26,410.53c2.16-0.73,4.37-1.75,6.71-1.34c5.38,0.67,10.59,2.23,15.88,3.38
				c9.87,2.35,20.13,3.13,30.22,1.95c-5.39,2.2-11.34,1.62-17.02,1.45c-9.62-0.49-18.84-3.39-28.15-5.58
				C775.37,409.61,772.78,410.22,770.26,410.53z"/>
			<path class="st11" d="M721.52,413.53c2.72-1.38,5.83-2.26,8.85-1.26c11.16,3.08,22.83,3.94,34.37,3.82
				c-11.52,1.03-23.5,1.55-34.67-2.01C727.29,413.28,724.36,413.7,721.52,413.53z"/>
			<path class="st13" d="M666.98,413.41c3.35,1.34,6.43,3.45,10.07,3.93c9.73,2.06,19.21-2.87,28.95-1.81
				c2.51,0.33,5.04,0.76,7.45,1.53c-2.21-0.03-4.4-0.36-6.57-0.62c-9.21-0.71-17.82,4.54-27.04,3.13
				C675.01,419.08,670.04,417.39,666.98,413.41z"/>
			<path class="st9" d="M900.84,421.83c4.14-2.66,6.92-7.47,12.07-8.41c-5.02,3.64-8.95,8.85-14.9,11.09
				c-5.59,2.11-11.51,3.7-17.54,3.51C887.47,426.91,894.75,425.75,900.84,421.83z"/>
			<path class="st9" d="M868.7,420.35c3.35-3.31,8.13-6.57,13.03-4.66c-2.78,0.51-5.72,0.74-8.12,2.36
				c-6.35,4.07-11.37,9.88-17.81,13.85C860.26,428.23,864.59,424.41,868.7,420.35z"/>
			<path class="st9" d="M925.12,424.56c2.65-3.07,4.31-6.79,6.16-10.36c-1.13,7.16-6.14,13.14-12.1,16.94
				c-4.91,3.16-10.14,6.24-16.01,7.08C911.4,435.51,919.4,431.2,925.12,424.56z"/>
			<path class="st9" d="M936.39,427.66c2.34-3.92,3.29-8.42,4.92-12.63c0.05,6.96-2.92,13.84-7.86,18.71
				c-4.45,4.45-9.22,9-15.29,11.09C925.25,440.38,932.05,434.95,936.39,427.66z"/>
			<path class="st9" d="M584.7,418.86c2.43-1.39,5.23-2.9,8.09-1.82c7.26,2.61,13.48,7.6,21.04,9.5c3.86,1.22,7.92,1.34,11.94,1.46
				c-10.89,2.3-21.45-2.91-30.72-8.08C591.94,417.79,588.18,418.4,584.7,418.86z"/>
			<path class="st9" d="M839.93,423.54c4.74-1.33,8.75-4.2,12.74-6.92c-6.01,7.06-15.79,10.7-24.96,9.54
				c-6.67-0.44-13.68-3.05-20.05,0.32c2.32-1.26,4.65-3.1,7.45-3.04C823.37,423.32,831.84,426.33,839.93,423.54z"/>
			<path class="st10" d="M630.83,425.69c9.55-7.09,23.25-8.68,33.85-3.02c4.72,2.45,9.61,4.97,13.22,8.99
				c-9.07-5.2-18.76-11.27-29.71-10.05C642.09,421.57,636.76,424.92,630.83,425.69z"/>
			<path class="st9" d="M720.67,423.41c3.52-0.74,6.82,0.83,10.14,1.78c8.13,2.12,16.68,1.28,24.81-0.38
				c-6.25,2.64-13.2,3.14-19.9,2.88C730.45,427.34,725.69,424.81,720.67,423.41z"/>
			<path class="st14" d="M1034.03,432.03c7.89-4.82,16.87-10.25,26.52-8.02c5.65,1.71,11.06,4.48,15.66,8.19
				c-8.31,1.37-16.33-3.2-24.58-1.35c-4.68,0.86-8.79,3.72-13.58,4.11C1036.28,435.07,1033.48,434.32,1034.03,432.03z"/>
			<path class="st9" d="M566.78,433.5c2.78-5.12,8.73-8.27,14.51-7.44c5.41,0.85,10.86,2.15,15.75,4.68
				c-6.39-1.06-12.71-3.42-19.26-2.73C573.55,428.48,570.25,431.36,566.78,433.5z"/>
			<path class="st13" d="M761.7,435.16c2.53-4.64,7.34-8.11,12.72-8.3c7.54-0.22,14.92,1.73,22.42,2.17
				c-8.53,1.39-17.26-1.71-25.74,0.44C767.5,430.5,764.67,433.03,761.7,435.16z"/>
			<path class="st11" d="M687.7,430.82c6.33-1.36,12.46-4.99,19.12-3.51c9.84,1.46,16.5,9.8,25.61,13.1
				c-8.91-2.84-16.24-9.5-25.61-11.07C700.33,427.7,694.21,431.73,687.7,430.82z"/>
			<path class="st9" d="M542.54,430.08c5.65,0.23,11.25-0.74,16.66-2.25c-7.39,4.22-16.2,3.18-24.33,3.76
				c-6.12,0.97-8.2,7.41-10.16,12.38c0.03-4.9,2-10.18,6.41-12.74C534.56,429.15,538.73,429.93,542.54,430.08z"/>
			<path class="st9" d="M940.68,440.03c2.09-4.16,3.32-9.01,7.28-11.91c-2.52,3.62-4.01,7.75-5.86,11.71
				c-1.41,3.19-4.92,4.36-8.02,5.14C936.38,443.52,939.5,442.77,940.68,440.03z"/>
			<path class="st14" d="M988.62,428.5c-7.18-1.62-14.69,1.09-19.57,6.49c5.97,1.98,12.68-0.39,17.83,0.47
				c5.16,0.85,9.22,0.95,9.5-3.47C994.08,430.29,991.24,429.57,988.62,428.5z"/>
			<path class="st15" d="M1088.36,440.84c1.13-4.31,4.41-8.66,9.18-9c4.12-0.73,7.86,2.76,8.68,6.62c1.05,4.65-0.93,9.7-4.53,12.73
				c-2.29,1.92-5.54,0.93-8.14,1.97c-2.07,1.94-3.12,4.68-5.07,6.74c0.61-2.86,1.81-5.77,4.11-7.68c2.14-1.47,4.95-0.84,7.28-1.8
				c4.47-3.24,6.34-10.14,2.99-14.82c-1.91-2.76-6.01-2.5-8.51-0.74C1092.04,436.54,1090.43,438.94,1088.36,440.84z"/>
			<path class="st9" d="M660.89,433.56c1.61-0.13,3.52-0.86,4.88,0.42c3.83,3.1,8.1,6.11,13.16,6.62
				c9.32,0.74,18.62-2.55,27.92-0.79c-4.44,0.58-8.94,0.56-13.33,1.4c-6.88,1.08-14.33,2.64-20.9-0.51
				C668.23,439.06,665.41,434.9,660.89,433.56z"/>
			<path class="st9" d="M621.07,441.62c7.74-1.54,14.36-6.36,22.04-8.07c-3.05,2.08-6.48,3.46-9.76,5.13
				c-5.01,2.4-10.18,5.15-15.9,4.95c-8.3-0.06-15.32-5.08-22.1-9.24c4.34-0.12,7.66,2.91,11.41,4.59
				C611.14,441.18,616.15,442.6,621.07,441.62z"/>
			<path class="st10" d="M783.18,443.09c2.52-6.05,9.64-8.31,15.7-7.58c9.69,0.97,19.46,3.55,29.2,1.44
				c-11.14,4.1-23.13-0.23-34.59,0.91C789.44,438.14,786.53,441.19,783.18,443.09z"/>
			<path class="st9" d="M876.44,437.83c7.69,1.28,15.77,1.86,23.22-0.81c-12.63,6.13-26.89-0.57-39.96,3.31
				C864.4,436.47,870.83,436.9,876.44,437.83z"/>
			<path class="st9" d="M945.54,450.32c4.61-3.65,6.84-9.29,9.76-14.21c-1.5,4.4-3.72,8.55-6.23,12.46
				c-3.85,5.55-11.18,6.29-17.27,7.62C936.09,453.54,941.54,453.49,945.54,450.32z"/>
			<path class="st11" d="M742.96,443.02c3.21-3.46,8.03-4.79,12.64-4.66c6.34-0.16,12.07,2.95,17.96,4.86
				c-3.03,2.16-6.53,0.1-9.5-1.02c-4.19-1.82-8.85-2.56-13.37-1.88C747.96,440.77,745.56,442.19,742.96,443.02z"/>
			<path class="st11" d="M536.98,444.34c5.3-3.03,11.34-5.05,17.5-4.9c-3.99,1.99-8.65,2.16-12.55,4.4
				c-4.57,1.97-8.03,5.59-11.98,8.47C530.66,448.54,533.85,446.13,536.98,444.34z"/>
			<path class="st9" d="M569.81,445.45c3.54-5.38,10.79-6.74,16.67-5.05c3.62,1.11,6.69,3.4,9.86,5.4
				c4.23,2.82,8.74,5.16,13.01,7.93c-7.31-2.99-13.68-7.76-20.86-10.99C582.3,440.07,575.16,441.68,569.81,445.45z"/>
			<path class="st11" d="M627.44,451.22c3.07-6.87,10.57-10.93,17.96-10.7c6.24,0.1,13.05,1.02,17.9,5.32
				c-8.11-3.5-17.7-5.06-26.07-1.47C633.46,445.84,630.51,448.69,627.44,451.22z"/>
			<path class="st16" d="M1051.99,443.2c2-1.27,4.55,0.96,4.03,3.16c-0.22,2.16-2.22,5.01-4.67,3.88
				C1049.4,448.47,1049.8,444.59,1051.99,443.2z"/>
			<path class="st11" d="M800.11,446.14c6.56-4.61,15.64-0.92,20.23,4.78c-3.11-1.8-6.1-4.07-9.72-4.74
				C807.16,445.3,803.62,446.13,800.11,446.14z"/>
			<path class="st9" d="M710.16,445.25c1.01-0.05,2.17-0.68,3.15-0.09c6.72,3.22,13.67,6.62,21.28,6.76
				c-2.38,0.36-4.83,0.54-7.18-0.06C721.44,450.31,715.48,448.44,710.16,445.25z"/>
			<path class="st16" d="M976.95,445.66c4.82-2.11,6.09,7.2,1.43,7.68C974.79,453.23,974.15,447.3,976.95,445.66z"/>
			<path class="st12" d="M839.15,448.63c8.25-2.59,17.32-2.65,25.6-0.23c-10.27-0.26-20.96-0.13-30.46,4.33
				c-1.95,1.07-4.16,1.17-6.32,0.97C831.9,452.49,835.21,449.87,839.15,448.63z"/>
			<path class="st9" d="M548.61,455.06c3.18-2.76,5.47-6.62,9.48-8.33c-4.83,6.84-10.87,13.55-19.31,15.65
				c-5.98,1.99-13.84-0.93-15.33-7.48c1.91,2.21,3.71,4.85,6.72,5.6C536.73,462.51,543.7,459.33,548.61,455.06z"/>
			<path class="st9" d="M869.77,455.61c3.06-4.5,8.65-6.81,13.99-6.73c6.85,0.07,13.7,0.5,20.53,0.96
				c-8.35,2.69-17.42-0.5-25.84,1.96C875.42,452.76,872.8,454.66,869.77,455.61z"/>
			<path class="st9" d="M899.84,460.63c5.31-5.07,11.24-10.1,18.54-11.92c-3.84,2.35-7.86,4.43-11.23,7.46
				c-2.69,2.11-4.75,5.01-7.78,6.68c-2.04,1.11-4.31,0.24-6.25-0.59C895.39,461.92,898.01,462.38,899.84,460.63z"/>
			<path class="st17" d="M1017.36,448.97c2.55,4.84,4.95,9.84,8.57,13.99c1.51,2.05,3.64,3.76,4.55,6.2
				c0.51,3.17-2.99,5.04-5.63,5.49c-3.01,0.23-6.01,0.05-9-0.12C1015.07,465.96,1016.35,457.45,1017.36,448.97z"/>
			<path class="st13" d="M682.27,455.11c3.28-2.83,7.56-4.8,11.99-4.05c5.97,0.88,12.42,2.56,16.51,7.33
				c-5.97-3.66-13.1-6.27-20.18-5.11c-4.77,0.88-7.87,4.93-11.99,7.06c-3.24,1.58-7.12-0.29-7.8-3.85c1.14,0.86,2.22,1.86,3.48,2.58
				C677.58,459.8,679.9,456.86,682.27,455.11z"/>
			<path class="st9" d="M762.28,451.85c4.37,3.74,10.35,5.14,15.96,3.84c8.73-2.07,17.55-4.51,26.62-3.66
				c-4.77,0.44-9.6,0.46-14.23,1.78c-6.51,1.56-13.01,4.81-19.85,3.32C767.33,456.61,764.31,454.63,762.28,451.85z"/>
			<path class="st7" d="M1046.43,453.06c5.36,0.68,10.75,0.39,15.86-1.51C1057.94,454.63,1050.71,457.73,1046.43,453.06z"/>
			<path class="st7" d="M970.08,455.99c5.36-0.77,10.71,1.03,16.12,0.62C981.02,458.09,974.85,459.16,970.08,455.99z"/>
			<path class="st9" d="M742.97,457.15c2.37-0.82,5.37-1.44,7.21,0.81c3.2,3.47,5.69,8.3,10.79,9.25c7.58,1.2,15.3-0.54,22.54-2.74
				c-5.04,2.65-10.75,3.52-16.3,4.44c-3.86,0.65-8.07,0.16-11.31-2.17c-3.09-2.04-4.61-5.58-7.24-8.08
				C747.19,457.12,744.84,457.58,742.97,457.15z"/>
			<path class="st11" d="M837.07,460c5.46-2.22,11.46-2.89,17.31-2.45c-4.12,1.92-8.89,1.45-13.1,3.17
				c-4.33,1.19-7.62,4.32-11.21,6.81c-2.86,1.88-6.59,1.12-9.04-1.05c2.45,0.01,5.22,0.97,7.46-0.5
				C831.4,464.06,833.78,461.34,837.07,460z"/>
			<path class="st11" d="M866.8,466.47c5.57-2.79,10.68-6.63,16.78-8.28c-3.27,2.42-7.04,4.03-10.31,6.44
				c-2.59,1.77-5.12,4.13-8.42,4.24c-3.84,0.35-7.27-1.62-10.92-2.34c-4.14-0.56-7.51,2.3-10.78,4.33c1.98-2.53,4.19-5.32,7.54-5.97
				C856.22,463.32,861.31,468.6,866.8,466.47z"/>
			<path class="st9" d="M792.22,462.3c5.79-5.45,15.02-4.49,21.42-0.63c-3.39-0.62-6.74-1.69-10.22-1.57
				C799.55,459.99,795.9,461.35,792.22,462.3z"/>
			<path class="st11" d="M630.9,469.72c1.73-4.7,5.99-8.48,10.97-9.31c4.23-0.6,7.72,2.37,10.71,4.93
				c4.68,4.05,9.91,7.59,15.89,9.39c-9.03-0.47-15.14-8.09-22.89-11.64C639.73,461.19,635.05,466.48,630.9,469.72z"/>
			<path class="st11" d="M563.56,468.2c2.48-4.35,7.41-7.04,12.44-6.39c8.03,0.48,13.74,6.89,20.96,9.58
				c2.53,1.04,5.31,0.6,7.96,0.83c-4.92,2.13-10.15,0.03-14.51-2.4c-5.12-2.69-10.22-6.32-16.26-6.09
				C570.07,463.5,566.77,466.11,563.56,468.2z"/>
			<path class="st9" d="M716.93,460.95c0.52,1.03,1.03,2.07,1.52,3.12c4.59,0.83,9.22-0.91,13.81,0.11
				c5.81,1.16,11.89,3.02,16.18,7.34c-7.67-4.25-16.46-7.11-25.31-5.55C719.85,466.86,716.19,464.67,716.93,460.95z"/>
			<path class="st18" d="M1021.42,460.86c2.12,3.06,4.08,6.24,6.23,9.29C1024.83,467.64,1022.3,464.62,1021.42,460.86z"/>
			<path class="st19" d="M1090.39,471.57c0-3.18,0.67-6.31,2.15-9.13c-0.09,3.53-0.58,7.09,0.05,10.6
				c2.14,11.04,3.48,22.69,0.29,33.66c-1.36,4.7-2.36,9.55-4.34,14.05c-1.44-4.56-0.77-9.35-0.58-14.02
				C1088.51,494.99,1090.4,483.33,1090.39,471.57z"/>
			<path class="st15" d="M926.48,463.28c1.54,2.25,2,5.93,4.99,6.79c2.97-0.24,6.16-1.79,9.03-0.24c2.69,1.31,3.38,4.46,4.07,7.09
				c-1.66-1.77-2.92-3.99-4.99-5.31c-2.85-1.35-5.93,0.65-8.85,0.08C927.34,470.4,926.76,466.41,926.48,463.28z"/>
			<path class="st9" d="M1102.37,468.43c1.41,2.64,1.05,5.72-0.74,8.1c-1.71,2.81-3.94,5.31-6.69,7.12
				C1098.21,479.01,1102.09,474.42,1102.37,468.43z"/>
			<path class="st17" d="M1056.39,469.99c3.96-2.45,8.47,2,7.72,6.12c0.5,4.84-6.59,8.26-9.76,4.41
				C1052.17,477.32,1053.45,472.29,1056.39,469.99z"/>
			<path class="st17" d="M975.06,470.98c2.99-1.73,6.61,0.91,6.89,4.08c1.04,4.3-2.7,10.31-7.57,8.7
				C969.32,481.41,969.52,472.73,975.06,470.98z"/>
			<path class="st20" d="M1018.6,470.42c1.62,0.55,3.24,1.15,4.84,1.83c-1.59,1.35-3.5,1.95-5.56,1.63
				C1018.06,473.02,1018.42,471.29,1018.6,470.42z"/>
			<path class="st9" d="M685.9,478.6c2.72-2.68,5.35-5.91,9.31-6.72c4-1.21,8.54-0.14,11.2,3.2c-2.69-1.2-5.52-2.84-8.58-2.05
				c-4.22,0.57-7.24,3.75-10.33,6.34c-2.17,1.99-5.25,1.87-7.97,2.27C681.71,480.83,684.16,480.32,685.9,478.6z"/>
			<path class="st13" d="M808.34,473.84c3.9-1.04,7.26,1.48,10.66,2.9c5.34,1.8,11.02,0.22,15.93-2.12
				c-3.51,3.52-8.88,3.95-13.58,3.95c-4.72,0.14-8.63-4.17-13.44-2.68c-5.99,0.94-9.13,7.77-15.33,8.08
				c-2.19,0.3-3.48-1.82-5.01-2.94c1.74,1.07,3.75,2.69,5.93,1.62C798.92,480.52,802.13,474.37,808.34,473.84z"/>
			<path class="st9" d="M764.3,476.62c5.34-1.37,11.01-0.68,16.22,0.95c-4.08-0.06-8.16-1.27-12.23-0.35
				c-5.19,0.49-9.47,3.95-14.55,4.76c-3.1,0.54-5.32-2.12-6.25-4.75c1.67,1.23,3.02,3.3,5.28,3.48
				C756.88,480.19,760.34,477.64,764.3,476.62z"/>
			<path class="st9" d="M641.59,478.97c3.14-2,7.06-1.4,9.58,1.31c6.17,6.13,14.55,10.34,23.41,9.88
				c-5.93,1.82-12.16-0.48-17.37-3.29c-3.29-1.7-5.76-4.49-8.68-6.67C646.57,478.6,643.91,479.15,641.59,478.97z"/>
			<path class="st9" d="M573.67,479.94c1.54-0.36,3.37-1.4,4.71,0.04c3.96,3.7,2.43,10.51,6.92,13.85c3.5,3,8.32,2.4,12.59,2.58
				c-4.87,1.57-10.84,1.43-14.75-2.27c-3.29-3.09-3.17-8.01-5.24-11.78C577.22,480.65,575.07,480.69,573.67,479.94z"/>
			<path class="st10" d="M594.68,480.99c2.47,0.9,3.88,3.32,6.18,4.49c1.78,0.87,3.78,1.11,5.75,1.11
				c8.17-0.07,15.97-2.71,23.64-5.26c-2.36,2.92-6.21,3.84-9.61,4.98c-5.44,1.47-11.09,2.94-16.78,2.36
				C599.59,488.22,595.87,485.11,594.68,480.99z"/>
			<path class="st9" d="M905.76,488.22c3.67-1.84,6.18-5.48,10.17-6.76c-5.29,7.15-14.4,11.91-23.37,10.86
				C897.06,491.36,901.71,490.58,905.76,488.22z"/>
			<path class="st19" d="M937.9,504.34c0.41-7.85-1.46-15.81,0.41-23.56c0.32,3.29,0.38,6.61,1.07,9.85
				c2.5,10.66,3.28,21.62,5.06,32.4c0.78,5.86,2.8,11.66,1.95,17.64c-4.45-6.39-6.62-14.34-6.46-22.09
				c1.16,4.17,2.18,8.41,4.24,12.26c-0.66-4.85-2.38-9.46-3.25-14.27c-0.76-3.91-1.06-7.89-1.49-11.85
				C939.04,504.62,938.28,504.44,937.9,504.34z"/>
			<path class="st9" d="M719.16,483.7c1.93-1.11,4.27-2.54,6.44-1.08c4.45,2.68,7.05,7.43,10.68,11.01
				c2.65,3.12,6.11,5.32,9.41,7.66c-8.36-3.01-13.18-10.93-19.64-16.49C724.18,482.95,721.48,483.7,719.16,483.7z"/>
			<path class="st7" d="M1017.72,482.37c-0.25,3.52-0.37,7.1,0.83,10.49l-0.02,0l0.01,0.02c0.02,0.05,0.04,0.1,0.06,0.15
				c0.12-0.08,0.78-0.1,1.57-0.1l-0.12-0.13c-2.7-3.13-1.06-7.83-1.41-11.58c0.49,0.53,1.46,1.62,1.94,2.15
				c0.21,3.23,0.73,6.45,1.89,9.5c0.15,0.01,0.45,0.04,0.6,0.05c-0.65-2.78-1.01-5.61-1.15-8.46c3.93-1.74,2.81-6.34,2.91-9.81
				c-3.01,0.23-6.01,0.05-9-0.12C1016.68,477.07,1018.12,479.59,1017.72,482.37z"/>
			<path class="st10" d="M845.94,489.23c3.04-2.24,5.71-5.54,9.68-6c4.98-0.31,8.74,4.1,13.66,4.27c6.29,0.25,12-2.73,17.76-4.79
				c-3.5,4.63-9.59,6.23-15.02,7.25c-5.33,0.96-9.75-2.66-14.52-4.23c-4.26-0.9-7.02,3.51-10.83,4.34c-1.92,0.51-1.38-2.32-2.02-3.4
				C844.98,487.3,845.62,488.59,845.94,489.23z"/>
			<path class="st9" d="M690.36,491.47c3.31-3.51,8.92-4.66,13.11-2.02c5.52,3.38,10.81,7.13,16.45,10.33
				c-6.71-1.96-11.99-6.94-18.48-9.41C697.75,488.96,694.01,490.87,690.36,491.47z"/>
			<path class="st9" d="M1081.93,503.05c0.55-4.42,1.47-9.26,5.18-12.19c-3.36,8.39-4.14,17.82-9.77,25.23
				C1078.82,511.72,1081.36,507.7,1081.93,503.05z"/>
			<path class="st11" d="M643.87,491.83c4.37-0.13,6.19,4.11,6.88,7.72c1.12,6.08,6.33,10.56,12.05,12.3
				c2.69,0.88,5.56,0.68,8.33,1.13c-6.2,2.6-13.45-0.34-18.12-4.68c-3.29-2.84-4.07-7.27-5.17-11.24
				C647.28,494.83,645.33,493.43,643.87,491.83z"/>
			<path class="st10" d="M812.68,492.68c5.37-1.46,10.6,1.16,15.7,2.54c4.37,1.4,8.89,2.18,13.47,2.52
				c-8.99,2.55-17.7-3.27-26.7-2.85c-5.62,0.27-8.27,6.82-13.97,6.81C804.99,498.69,807.77,494.01,812.68,492.68z"/>
			<path class="st9" d="M920.87,499.72c2.65-1.15,4.77-3.12,7.11-4.76c-3.02,6.24-10.98,7.88-17.29,7.78
				C914.06,501.66,917.6,501.14,920.87,499.72z"/>
			<path class="st11" d="M755.79,503c1.78-4.94,7.41-8.02,12.54-7.07c4.76,0.76,8.35,4.24,12.55,6.32
				c5.35,2.68,11.68,2.9,17.39,1.29l0.19,0.89c-6.73,2.64-14.66,2.1-20.85-1.69c-3.75-2.16-7.55-5.1-12.12-4.68
				C761.69,498.33,758.98,501.31,755.79,503z"/>
			<path class="st11" d="M859.41,499.63c4.92-3.02,10.86-1.51,16.23-0.91c7.4,1.17,14.86,2.08,22.19,3.65
				c-4.12,0.79-8.27-0.32-12.37-0.61c-6.32-0.54-12.58-1.62-18.91-1.98c-4-0.24-7.26,2.43-10.88,3.59c-2.1,0.68-4.27-0.16-6.34-0.44
				C852.89,502.53,856.34,501.52,859.41,499.63z"/>
			<path class="st11" d="M663.13,498.96c3.24-0.14,5.6,2.6,8.75,2.97c7.83,1.21,15.84-0.32,23.1-3.32
				c-3.86,4.13-9.92,4.76-15.22,5.54C673.79,505.1,667.19,503.73,663.13,498.96z"/>
			<path class="st9" d="M731.62,502.9c2.82,1.14,5.03,3.3,7.69,4.74c7.42,4.01,15.89,6.25,24.36,5.8c3.38-0.07,6.43-1.67,9.59-2.67
				c-5.97,4.88-14.22,4.31-21.37,3.24C744.27,512.59,736.1,509.63,731.62,502.9z"/>
			<path class="st9" d="M637.7,506.65c1.71,0.33,3.95,0.23,4.86,2.08c2.27,4.09,2.88,9.18,6.5,12.47c3.75,4.06,9.07,5.93,14.35,6.99
				c-5.97,0.72-11.64-2.42-15.76-6.49c-3.66-3.52-4.28-8.8-6.55-13.12C639.96,507.95,638.82,507.31,637.7,506.65z"/>
			<path class="st9" d="M823.22,508.8c2.17-0.79,4.54-1.23,6.82-0.56c12.29,3.31,22.63,12.09,35.48,13.63
				c-2.59,0.12-5.23-0.04-7.7-0.87c-8.82-2.85-17.05-7.2-25.7-10.49C829.29,509.35,826.22,509.16,823.22,508.8z"/>
			<path class="st9" d="M672.21,521.76c11.05,0.42,20.29-6.78,30.56-9.68c-4.02,3.5-9.28,4.99-13.97,7.34
				C683.66,521.53,677.63,525.03,672.21,521.76z"/>
			<path class="st10" d="M869.26,513.74c2.7-1.55,5.89-2.54,9.02-1.82c4.01,0.96,7.62,3.19,11.72,3.82
				c6.59,1.05,13.43,0.75,19.8-1.35c-1.05,1.19-2.18,2.45-3.78,2.82c-4.61,1.23-9.46,1.53-14.2,1.23c-4.37-0.24-8.29-2.3-12.24-3.96
				C876.32,512.95,872.69,513.82,869.26,513.74z"/>
			<path class="st9" d="M913.9,520.21c6.82-1.66,13.33-4.34,19.48-7.72c-1.16,1.8-2.75,3.3-4.82,3.96
				C923.82,518.17,919.01,520.14,913.9,520.21z"/>
			<path class="st9" d="M952.58,517.88c1.27-1.83,2.08-4.1,4.11-5.27c-1.16,5.19-5.26,9.2-9.86,11.57
				C948.73,522.06,950.94,520.25,952.58,517.88z"/>
			<path class="st21" d="M713.74,516.96c1.02-1.2,2.07-2.73,3.84-2.7c5.32-0.69,9.37,3.47,13.42,6.21
				c6.44,4.26,13.31,8.84,21.31,8.92c-6.9,2.42-13.45-2.42-19.31-5.47C726.96,520.77,721.28,513.64,713.74,516.96z"/>
			<path class="st7" d="M1009.55,519.74c5.27-4.78,13.26-4.56,19.42-1.73C1022.45,517.99,1015.94,518.42,1009.55,519.74z"/>
			<path class="st10" d="M785.1,521.79c4.43-0.92,8.57-2.97,13.06-3.65c5.6-0.95,11.34,0.38,16.47,2.64
				c3.06,1.36,6.06,3.22,7.72,6.25c-6.18-3.95-13.27-7.3-20.81-6.54c-6.48,0.38-12.35,4.11-18.91,3.76
				c-2.56-0.09-4.87-1.32-6.89-2.81C778.84,521.68,781.98,522.44,785.1,521.79z"/>
			<path class="st11" d="M875.8,531.95c1.99-1.66,4.28-3.2,6.95-3.39c4.9-0.62,9.35,1.91,13.91,3.26
				c8.12,2.54,16.83,2.29,25.14,0.86c-2.85,2.22-6.57,2.63-10.06,2.81c-5.66,0.25-11.44-0.17-16.81-2.08
				c-3.41-1.1-6.69-2.78-10.3-3.07C881.58,530.09,878.73,531.4,875.8,531.95z"/>
			<path class="st11" d="M839.85,530c2.52-0.56,5.38-1.14,7.72,0.35c3.78,2.22,7.21,5.12,11.39,6.62
				c6.97,2.48,14.71,1.63,21.37-1.39c-4.49,4.58-11.43,4.78-17.4,4.39c-6.08-0.31-11.07-4.13-15.68-7.72
				C845.17,530.53,842.35,530.56,839.85,530z"/>
			<path class="st9" d="M698.7,533.33c4.46-3.82,11.79-3.32,15.89,0.81c5.67,5.42,11.17,11.03,17.56,15.62
				c-8.35-3.25-13.45-11.2-20.87-15.84C707.42,531.6,702.87,533.07,698.7,533.33z"/>
			<path class="st9" d="M662.66,536.21c8.22,0.66,16.66-0.41,24.18-3.92c-5.01,4.09-11.71,4.86-17.92,5.45
				c-6.02,0.55-12.26-0.65-17.35-3.99C655.32,534.32,658.86,535.91,662.66,536.21z"/>
			<path class="st9" d="M926.84,537.3c3.76-1.75,7.18-4.24,11.2-5.4c-2.13,3-5.62,4.41-8.84,5.89c-3.68,1.59-7.57,3.1-11.65,2.86
				C920.63,539.49,923.84,538.69,926.84,537.3z"/>
			<path class="st10" d="M780.75,539.17c7.1-1.93,14.4-3.85,21.83-3.31c1.98,0.07,3.82,0.81,5.55,1.71
				c-4.58,0.11-9.21-0.48-13.71,0.57c-8.88,1.37-17.13,6.07-26.27,5.69c-4.89-0.08-9.47-2.86-11.99-7.01
				c3.1,1.42,5.86,3.75,9.32,4.31C770.65,542,775.8,540.51,780.75,539.17z"/>
			<path class="st9" d="M731.9,536.95c1.54,0.25,3.25,0.43,4.33,1.72c3.93,3.99,7.92,8.23,13.22,10.38
				c7.19,2.86,15.05,2.81,22.64,3.46c-3.83,1.2-7.9,0.77-11.83,0.54c-5.7-0.56-11.71-1.37-16.4-4.94
				C739.22,545.1,736.4,540.11,731.9,536.95z"/>
			<path class="st9" d="M817.35,538.4c6.43-1.39,11.97,2.64,16.78,6.28c7.39,5.25,15.85,10.38,25.29,9.58
				c-6.42,2.18-13-0.77-18.65-3.68c-5.09-2.51-9.4-6.25-14.21-9.21C823.79,539.59,820.48,539.19,817.35,538.4z"/>
			<path class="st10" d="M897.35,543.56c9.86,4.28,21.05,4.36,31.42,2.18c-3.39,3.08-8.21,3.11-12.51,3.42
				C909.81,549.3,901.27,549.83,897.35,543.56z"/>
			<path class="st12" d="M777.88,556.76c2.65-3.69,6.83-5.94,11.11-7.19c7.04-1.99,14.47-0.42,21.25,1.8
				c4.54,1.62,9.21,3.53,12.58,7.12c-9.74-5.31-21.06-9.1-32.23-6.84C786.03,552.46,782.19,555.23,777.88,556.76z"/>
			<path class="st9" d="M861.27,551.18c2.44-0.86,5.15-1.53,7.7-0.66c3.7,1.28,7,3.57,10.86,4.45c6.01,1.37,12.23,0.88,18.32,0.37
				c-4.68,2.52-10.23,2.17-15.36,1.93c-4.61-0.08-8.67-2.36-12.64-4.42C867.43,551.29,864.27,551.43,861.27,551.18z"/>
			<path class="st11" d="M731.17,554.79c3.34,2.33,6.13,5.52,10.04,6.98c8.12,3.1,17.18,3.28,25.51,0.94
				c-5.14,4.23-12.42,3.48-18.61,2.88C741.2,564.94,733.92,561.58,731.17,554.79z"/>
			<path class="st11" d="M848.13,562.52c5.05-0.98,8.87,2.93,13.27,4.56c3.02,1.51,6.4,1.87,9.73,2.03
				c-3.26,2.18-7.19,0.89-10.55-0.3C856.14,567.31,852.32,564.54,848.13,562.52z"/>
			<path class="st12" d="M825.03,562.96c2.92,2.12,4.73,5.41,7.63,7.57c3.23,2.49,7.32,4.02,11.44,3.81
				c2.66-0.14,4.82-1.9,7.22-2.86c-3.52,5.57-11.07,5.26-16.49,3.07C829.81,572.66,826.6,567.88,825.03,562.96z"/>
			<path class="st22" d="M784.06,654.28c3.08-5.25,6.45-10.41,10.79-14.72c-4.14,7.16-9.14,13.84-12.51,21.44
				c-5.02,11.25-8.23,23.39-8.32,35.76c-0.43-5.64-0.16-11.36,1.17-16.88C777.25,671.08,779.44,662.13,784.06,654.28z"/>
			<path class="st22" d="M793.65,673.89c5.36-7.59,11.73-14.89,20.1-19.24c-3.53,4.47-8.35,7.65-12.04,11.97
				c-8.61,9.04-14.88,19.89-21.81,30.18C783.64,688.69,788.51,681.16,793.65,673.89z"/>
			<path class="st22" d="M780.86,681.78c1.9-5.64,4.86-10.92,8.95-15.29c-5.97,9.75-9.86,20.57-12.16,31.73
				C777.09,692.54,779.08,687.08,780.86,681.78z"/>
			<path class="st22" d="M747.37,680.53c5.53,1.15,11.14,2.96,15.43,6.79c4.86,4.26,9.86,8.38,14.42,12.96
				c-4.42-2.82-8.68-5.91-12.62-9.38c-2.77-2.42-5.56-4.95-9.01-6.34C752.76,683.41,749.8,682.45,747.37,680.53z"/>
			<path class="st22" d="M1172.82,685.69c2.42,4.81,2.94,10.27,4.95,15.23c2.74,7.02,5.97,13.9,7.66,21.28
				c1.22,5.49,3.19,10.79,4.21,16.32c1.99-6.2,2.4-12.72,2.73-19.17c2.48,7.54,0.48,15.92-3.73,22.46
				c-1.16-10.25-4.33-20.22-8.64-29.57C1176.33,703.85,1172.4,695.07,1172.82,685.69z"/>
			<path class="st23" d="M1204.19,727.14c10.44-5.11,21.64-8.96,33.29-9.93c2.21-0.26,4.43,0.18,6.54,0.85
				c-7.94,0.46-15.74,2.27-23.27,4.8c-10.31,3.56-20.64,7.79-28.93,15.08C1194.28,732.78,1199.23,729.57,1204.19,727.14z"/>
			<path class="st22" d="M956.33,730.29c10.96-2.84,22.5-2.09,33.55-0.14c18.29,3.66,35.9,9.95,53.21,16.76
				c-6.66-0.9-12.66-4.16-19.05-6.05c-15.43-5.02-31.17-9.76-47.46-10.88C969.84,729.33,963.09,730.08,956.33,730.29z"/>
			<path class="st22" d="M928.89,756.11c16.15-2.79,32.18-7.05,48.68-7.01c17.17,0.02,34.59,1.16,51.04,6.44
				c-5.4-0.32-10.56-2.02-15.89-2.72c-12.24-1.77-24.63-2.34-36.99-1.99c-16.15,0.51-31.88,4.49-47.78,6.99
				c-6.31,0.92-12.49,3.45-18.95,2.61C915.82,759.91,922.19,757.26,928.89,756.11z"/>
			<path class="st22" d="M860.26,799.21c7.19-1.41,14.35-3.52,21.75-3.4c-15.65,1.95-30.49,7.73-46.07,9.97
				c-11.28,1.33-24.57,1.29-33.11-7.42c5.24,2.87,10.79,5.46,16.84,5.96C833.42,805.63,846.89,801.82,860.26,799.21z"/>
			<path class="st23" d="M1005.79,801.58c13.23-2.68,26.92-0.84,40.05,1.62c16.51,3.13,30.7,12.8,43.69,22.96
				c6.4,4.68,13.5,9.02,21.53,9.96c4.96,0.68,10,0.18,14.99,0.64c-9.36,2.51-19.73,2.18-28.4-2.4c-8-3.6-14.45-9.64-21.76-14.33
				c-10.09-6.85-21.28-12.25-33.25-14.83c-9.51-2-19.23-3.34-28.97-2.99C1011.03,802.27,1008.33,802.43,1005.79,801.58z"/>
			<path class="st23" d="M878.28,804.81c11.08-1.49,22.25-2.83,33.46-2.66c10.49,0.01,21.1,0.16,31.4,2.42
				c-3.84,0.94-7.78,0.1-11.64-0.13c-18.1-1.02-36.23,0.41-54.14,2.96c-8.07,1.16-15.74,4.03-23.68,5.78
				c-9.75,2-19.48,4.69-29.5,4.76c-6.25,0.03-12.55-0.86-18.47-2.93c5.85-0.13,11.62,1.08,17.47,0.88
				c10.68-0.27,21.02-3.15,31.41-5.33C862.47,808.6,870.19,805.9,878.28,804.81z"/>
			<path class="st23" d="M966.19,812.29c10.39-3.29,21.44-3.78,32.18-2.2c19.59,1.98,38.7,7.46,56.59,15.59
				c4.04,1.96,8.3,4.16,10.62,8.21c-5.61-4.13-11.81-7.38-18.4-9.66c-19.08-7.42-39.38-11.32-59.75-12.85
				C980.31,810.78,973.28,812.43,966.19,812.29z"/>
			<path class="st23" d="M886.43,818.73c16.85-1.08,33.75-4.32,50.64-2.23c10.82,1.17,21.56,2.92,32.37,4.18
				c-2.31,0.95-4.83,1.13-7.27,0.85c-15.87-1.5-31.82-3.96-47.79-2.47c-13.51,0.88-26.98,2.47-40.53,2.67
				c-9.23,0.03-18.55,0.88-27.7-0.79C859.57,820.23,873.01,819.59,886.43,818.73z"/>
			<path class="st22" d="M811.44,824.95c14.69-1.85,29.54-1.02,44.31-1.1c9.94,0.38,19.92,0.42,29.8,1.57
				c10.49,1.68,21.13,2.25,31.55,4.31c13.57,2.36,27.27,4.14,40.69,7.29c7.18,1.58,14.36,3.29,21.71,3.86
				c7.27,0.69,14.29,2.78,21.33,4.62c18.24,4.7,35.14,13.36,51.57,22.38c17.85,9.31,35.33,19.87,54.97,25.03
				c-8.9,0.4-17.12-3.35-25.28-6.31c5.79,2.91,11.7,5.56,17.76,7.83c2.54,0.89,4.67,2.57,6.64,4.37
				c-15.57-3.12-29.51-11.05-43.56-18.07c-16.16-8.39-32-17.57-49.16-23.83c-10.74-3.47-21.4-7.16-32.28-10.15
				c-8.3-2.9-17.05-4.02-25.55-6.13c-12.79-3.08-25.84-4.77-38.78-7.02c-11.07-2.22-22.36-3-33.49-4.86
				c-17.66-1.74-35.42-2.36-53.17-2.1c-10.19-0.15-20.35,1.6-30.54,0.85C803.14,824.79,807.58,825.44,811.44,824.95z"/>
			<path class="st23" d="M846.98,833.82c6.44-2.52,13-5.44,20.03-5.65c-0.01,0.5-0.01,1.5-0.02,1.99
				c-25.61,6.79-48.61,20.6-70.24,35.52c-20.53,14.28-40.51,29.59-57.85,47.68c-4.03,4.11-7.85,8.39-11.85,12.53
				c-1.08,1.21-2.51,2.04-4.12,2.27c16.42-19.39,34.9-37.04,55.35-52.15C799.92,860.08,821.83,843.66,846.98,833.82z"/>
			<path class="st23" d="M939.22,829.78c21.16-1.91,42.84-1.3,63.54,3.91c17.11,4.33,33.15,12.08,48.2,21.2
				c14.31,8.82,29.39,16.33,44.84,22.91c-7.74-1.08-14.53-5.26-21.67-8.13c-16.37-6.71-30.76-17.27-46.91-24.41
				c-14.74-6.72-30.49-11.28-46.6-13.09C966.89,830.34,952.99,831.11,939.22,829.78z"/>
			<path class="st22" d="M1035.66,836.67c6.42-0.91,12.44,1.98,18.11,4.59c9.64,4.65,19.34,9.25,28.5,14.82
				c9.77,6.28,20.11,11.71,29.38,18.74c-5.32-0.88-9.81-3.98-14.32-6.7c-5.63-3.41-11.19-6.93-16.81-10.34
				c-9.95-5.96-20.38-11.05-30.78-16.15C1045.27,839.37,1040.42,838.08,1035.66,836.67z"/>
			<path class="st24" d="M1001.67,848.58c3.7,0.42,7.28,1.56,10.51,3.44C1008.47,851.57,1004.91,850.42,1001.67,848.58z"/>
			<path class="st23" d="M1062.05,892.4c-1-3.84-3.23-7.87-1.47-11.83c2.23,5.81,4.73,11.63,5.5,17.87c1,7.49,1.16,15.06,1.43,22.61
				c0.16,12.02,0.16,24.09-1.37,36.04c-0.62,4.65-1.44,9.4-3.74,13.55c4.25-17.36,3.76-35.43,2.96-53.17
				C1064.77,909.06,1064.18,900.58,1062.05,892.4z"/>
			<path class="st25" d="M1027.41,960.71c1.23-10.97,0.5-22.01,1.42-32.98c2.72,20.47,0.99,41.52-4.87,61.33
				c-8.37,28.98-20.04,57.48-38.23,81.76c-1.47,1.98-3.02,3.9-4.8,5.6c2.84-5.53,7.2-10.09,10.34-15.44
				c10.41-16.22,18.18-33.98,24.56-52.11C1021.22,993.25,1025.57,977.19,1027.41,960.71z"/>
			<path class="st22" d="M928.27,984.49c1.99-1.8,4.31-3.19,6.75-4.28c-11.77,9.4-21.11,21.36-30.09,33.36
				c-10.7,14.47-20.83,29.35-30.24,44.69c-7.18,11.64-13.65,23.71-20.38,35.61c-1.48,2.64-3.04,5.25-4.99,7.58
				c2.78-6.33,6.72-12.07,9.81-18.25c14.34-26.95,31.1-52.58,49.49-76.93C914.53,998.47,921.01,991.08,928.27,984.49z"/>
			<path class="st22" d="M658.72,1003.79c4.9-6.25,9.53-12.91,16-17.66c-10.11,11.61-18.82,24.36-26.95,37.41
				c-7.28,11.57-14.13,23.45-22.44,34.34c-13.49,17.9-29.54,33.66-45.79,49.02c-8.78,8.09-17.59,16.16-27.11,23.38
				c-2.83,2.14-5.74,4.21-8.98,5.7c3.79-3.87,8.58-6.53,12.59-10.15c17.92-15.36,34.98-31.75,50.86-49.22
				c8.86-9.95,17.26-20.36,24.57-31.52C640.55,1031.33,648.54,1016.8,658.72,1003.79z"/>
			<path class="st22" d="M744.71,1019.42c4.55-4.27,8.95-8.87,14.4-12.05c-3.1,4.72-7.84,7.95-11.66,12.03
				c-14.9,14.43-26.75,31.62-37.25,49.42c-20.51,34.47-38.21,70.52-57.82,105.49c-1.52,2.73-3.1,5.46-5.15,7.84
				c19.3-35.41,37.16-71.62,57.07-106.71C715.62,1055.36,727.78,1035.3,744.71,1019.42z"/>
			<path class="st22" d="M352.12,1023.58c2.55-1.16,5.23-2.3,8.1-2.1c7.17,0.27,14.4,1.77,20.77,5.15
				c11.2,6.04,20.53,14.84,29.4,23.84c16.55,16.18,39.72,24.86,62.76,24.56c4.43-0.16,8.95-0.89,12.9-3.02
				c2.24-1.24,4.45-2.54,6.88-3.38c-5.75,7.18-15.61,8.94-24.31,8.83c-13.22-0.47-26.62-2.78-38.57-8.65
				c-9.71-4.77-18.36-11.5-25.85-19.26c-7.14-7.41-15.03-14.18-23.89-19.44C371.8,1025.21,361.82,1023.5,352.12,1023.58z"/>
			<path class="st23" d="M573.15,1059.98c2.26-2.54,4.33-5.24,6.58-7.81c-4.02,9.93-12.24,17.2-20.33,23.81
				c-13.73,10.96-28.06,21.27-43.63,29.47c-9.4,4.93-19.01,9.49-28.85,13.45c-7.97,3.16-16.25,5.95-24.88,6.41
				c2.06-2.8,5.99-2.3,8.96-3.38c12.4-3.5,24.04-9.19,35.57-14.86c14.86-7.46,29.05-16.22,42.32-26.24
				C557.38,1074.39,566.03,1067.98,573.15,1059.98z"/>
			<path class="st23" d="M288.14,1089.16c10.58-2.46,21.46-3.94,32.34-3.22c18.64,1.19,37.54,3.43,55.02,10.35
				c5.55,2.53,11.47,5.13,15.37,10.01c-2.37-0.83-4.54-2.1-6.66-3.42c-5.14-3.19-10.88-5.26-16.67-6.92
				c-11.19-3.18-22.74-4.92-34.32-5.84c-8.43-0.65-16.9-1.56-25.35-0.9c-11.69,0.79-23.01,3.98-34.32,6.77
				c-8.77,2.09-18.01,3.89-26.98,1.94c-5.6-1.18-11.17-3.39-15.19-7.62c7.61,4.3,16.4,6.63,25.16,5.83
				C267.34,1095.22,277.63,1091.6,288.14,1089.16z"/>
			<path class="st22" d="M885.47,1104.25c0.46,6.72-3.01,12.71-5.71,18.59c-14.55,28.38-33.78,54.05-54.59,78.11
				c-17.05,19.59-34.67,38.8-54.24,55.9c-6.54,5.33-12.94,11.06-20.45,15.02c4.97-5.15,11.33-8.7,16.57-13.57
				c21.02-18.38,39.72-39.24,57.87-60.41c19.79-23.19,37.76-48.02,52.46-74.77C880.63,1117.09,883.63,1110.88,885.47,1104.25z"/>
			<path class="st23" d="M1143.92,1126.75c0.08-2.68,0.79-5.27,1.82-7.72c-0.3,13.75,1.43,27.47,0.4,41.23
				c-1.14,16.07-3.38,32.31-9.24,47.43c-0.93,2.32-1.79,4.9-4.05,6.29c1.98-6.25,4.82-12.22,6.16-18.67
				c3.27-13.85,4.78-28.1,5.15-42.32C1144.41,1144.24,1143.66,1135.5,1143.92,1126.75z"/>
			<path class="st22" d="M902,1201.03c8.06-10.39,14.93-21.61,22.48-32.34c-13.69,26.36-32.62,49.81-54.28,70.06
				c-12.01,10.98-24.58,21.37-37.79,30.89c-11.9,8.5-24.13,16.76-37.51,22.8c-4.96,2.04-9.87,4.62-15.32,4.97
				c5.56-2.33,11.32-4.18,16.71-6.92c13.57-6.7,25.98-15.48,38.17-24.39C859.57,1247.36,882.75,1225.84,902,1201.03z"/>
			<path class="st8" d="M986.93,1172.67c3.29-0.86,5.2,1.19,5.88,3.91c0.68,2.73,1.5,8.88-0.75,9.21c-2.25,0.33-4.16-5.8-4.56-7.85
				C987.08,1175.91,986.93,1172.67,986.93,1172.67z"/>
			<path class="st22" d="M710.7,1230.94c3.74-4.69,7.09-9.75,11.57-13.8c-7.72,11.35-15.84,22.55-25.71,32.15
				c-9.72,9.58-20.39,18.16-31.35,26.28c-12.46,9.06-25.51,17.46-39.66,23.62c-5.05,2.08-10.14,4.22-15.55,5.14
				c3.73-2.33,8.09-3.23,12.09-4.96c14.86-6.19,28.47-15,41.42-24.48C680.78,1262.06,697.21,1247.82,710.7,1230.94z"/>
			<path class="st23" d="M440.89,1236.42c6.38-1.77,12.22-4.86,18.28-7.45c-1.41,1.78-3.29,3.08-5.33,4.03
				c-10.42,5.17-21.81,7.97-33.14,10.31c-14.86,2.97-29.96,4.93-45.12,5.44c-16.03,0.58-32.11,1.48-47.88,4.56
				c-9.14,1.87-18.39,3.9-26.8,8.09c-4.79,2.32-8.84,5.88-13.61,8.23c5.84-7.91,15.04-12.53,24.19-15.51
				c19.24-6.13,39.55-7.91,59.65-8.4C394.63,1245.52,418.19,1242.71,440.89,1236.42z"/>
			<path class="st23" d="M575.44,1244.54c4.3-5.27,8.14-11.02,13.37-15.45c-8.48,13.63-18.36,26.48-29.67,37.9
				c-21.21,21.16-47.06,36.75-72.72,51.85c-17.64,10.03-35.61,19.81-54.82,26.52c-3.84,1.33-7.74,2.64-11.85,2.8
				c3.56-2.89,8.29-3.29,12.4-5c14.99-5.67,29.22-13.14,43.21-20.88c22.64-12.91,45.1-26.4,65.48-42.72
				C553.74,1269.32,565.05,1257.28,575.44,1244.54z"/>
			<path class="st26" d="M941.85,1280.39c3.47-1.44,7.08-2.97,10.93-2.72c2.89,6.98,4.06,14.49,6.55,21.61
				c3.16,9.44,5.29,19.51,11.19,27.73c6.16,9.96,15.7,17.73,26.44,22.27c9.22,2.64,18.72,4.69,28.35,4.97
				c10.86,0.79,22.19,0.6,32.26-4.04c6.01-2.68,9.96-8.25,13.52-13.55c5.96-10.18,6.49-22.31,7.34-33.77
				c0.65-6.37,0.35-12.77-0.23-19.12c-0.15-2.26-1.43-4.16-2.14-6.24c2.2,0,3.5,1.98,3.81,3.97c2.23,13.97,0.59,28.23-2,42.04
				c-1.49,8.1-5.14,15.71-10.73,21.77c-5.63,7.15-14.92,9.58-23.51,10.81c-6.8,1.13-13.53-1.03-20.31-0.5
				c-8.77,0.19-17.34-2.32-25.85-4.12c-15.53-5.53-27.81-18.46-34.08-33.53c-4.57-12.87-8.66-25.98-11.07-39.44
				C948.87,1279.36,945.42,1280.33,941.85,1280.39z"/>
			<path class="st26" d="M944.8,1287.86c0.6-2.24,1.47-4.4,2.6-6.42c-7.02,29-16.37,57.56-20.14,87.25
				c-1.16,9.52-0.67,19.68,4.1,28.22c4.16,6.61,11.87,9.75,19.21,11.34c5.97,0.93,11.92,2.44,18.02,2.41
				c25.82-0.12,51.75,1.12,77.47-1.9c6.65-0.9,13.42-0.51,20.05-1.71c7.89-1.4,15.58-3.9,22.82-7.35c3.52-1.63,5.26-5.29,7.59-8.18
				c-1.43,3.67-3.05,7.89-6.85,9.69c-7.22,3.42-14.94,5.76-22.76,7.28c-6.6,1.34-13.36,1.16-20.01,1.99
				c-26.92,3.14-54.06,1.3-81.08,1.36c-9.53-1.13-19.49-2.15-28-6.98c-3.8-2.39-7.3-5.63-9.03-9.86
				c-2.29-5.47-3.61-11.41-3.43-17.36c0.01-10.69,2.55-21.13,4.72-31.53C934.21,1326.52,939.65,1307.22,944.8,1287.86z"/>
			<path class="st22" d="M353.01,1333.46c5.53-1.48,10.88-3.72,16.61-4.34c-6.22,3.11-13.11,4.46-19.66,6.71
				c-17.13,5.62-33.97,12.09-50.74,18.71c-9.35,3.86-18.92,7.55-27.29,13.32c-4.24,2.84-7.7,6.63-11.42,10.1
				c5.11-8.67,13.8-14.4,22.7-18.64c11.73-5.53,23.96-9.94,36.1-14.49C330.45,1340.78,341.55,1336.52,353.01,1333.46z"/>
			<path class="st23" d="M829.09,1361.15c4.17-1.94,7.44-5.21,11.05-7.95c-3.3,6.11-9.96,9.17-16.04,11.81
				c-18.01,7.08-36.94,11.35-55.84,15.22c-20.97,4.36-42.28,6.69-63.26,10.97c-11.81,2.51-23.81,5.74-33.85,12.73
				c5.18-6.9,13.75-9.55,21.57-12.19c15.78-4.7,32.14-6.92,48.38-9.4c20.61-2.95,41.16-6.71,61.31-12.01
				C811.47,1367.81,820.54,1365.13,829.09,1361.15z"/>
			<path class="st23" d="M543.5,1359.71c7.54-2.21,15.17-4.4,22.99-5.39c-1.85,1.68-4.29,2.35-6.66,2.91
				c-18.86,4.49-36.94,11.68-54.86,19c-26.41,10.9-52.75,23.22-74.71,41.82c-6.58,5.34-12.39,11.57-19.08,16.77
				c-2.55,2.1-5.73,3.11-8.95,3.58c8.35-2.87,13.51-10.42,19.82-16.1c19.54-19.14,43.9-32.42,68.94-42.91
				C508.23,1372.17,525.55,1364.96,543.5,1359.71z"/>
			<path class="st27" d="M1023.32,1355.64c6.78-0.53,13.51,1.62,20.31,0.5c-3.66,0.42-7.34,0.6-11.01,0.71
				c-0.12,2.83,0.23,5.79-0.63,8.54c-1.73,3.1-6.9,3-8.39-0.27C1022.4,1362.1,1023.19,1358.76,1023.32,1355.64z"/>
			<path class="st22" d="M889.22,1365.94c2.48-3.59,4.41-7.55,7.24-10.88c-1.07,5.67-4.29,10.6-7.53,15.26
				c-8.63,11.99-19.86,21.72-30.84,31.47c-13.48,11.65-27.53,22.75-42.72,32.12c-6.56,3.79-13.27,7.64-20.68,9.51
				c3.42-2.73,7.73-3.81,11.52-5.9c11.15-5.92,21.36-13.43,31.3-21.18c11.68-9.29,22.93-19.12,33.63-29.52
				C877.73,1380.37,883.97,1373.53,889.22,1365.94z"/>
			<path class="st22" d="M551.17,1408.86c3.41-2.89,5.9-6.69,9.49-9.35c-3.43,6.51-9.31,11.22-14.95,15.73
				c-14.1,10.67-28.66,20.7-43.18,30.8c-15.42,10.97-31.72,20.75-49.02,28.5c-6.93,3.07-13.95,6.67-21.69,6.91
				c9.1-2.27,17.36-6.8,25.69-10.97c25.26-12.56,48.03-29.35,71.31-45.15C536.39,1420.01,544.11,1414.85,551.17,1408.86z"/>
			<path class="st22" d="M726.48,1449.7c4.61-0.77,9-2.44,13.59-3.22c-5.05,3.32-11.21,3.96-16.97,5.23
				c-18.82,3.39-37.47,7.64-55.91,12.67c-12.03,3.38-24.06,7.05-35.35,12.49c-15.82,7.55-30.42,17.36-45.98,25.41
				c-8.53,4.37-17.97,7.67-27.7,6.87c15.13-0.56,28.17-8.88,40.77-16.37c15.56-9.24,31.07-19.03,48.43-24.56
				C673.17,1459.89,699.77,1454.17,726.48,1449.7z"/>
			<path class="st22" d="M899.65,1492.82c7.81-10.08,13.75-21.37,20.31-32.24c-4.88,12.67-11.6,24.69-19.93,35.42
				c-8.68,10.81-20.61,18.26-32.29,25.42c-27.35,16.48-55.78,31.35-81.48,50.41c-3.55,2.59-6.8,5.59-10.58,7.85
				c3.84-4.76,9.18-7.93,13.89-11.73c25.79-19.15,54.41-33.94,81.48-51.11C881.54,1510.11,891.94,1502.78,899.65,1492.82z"/>
			<path class="st23" d="M1011.6,1482.13c2.69-1.96,5.26-4.83,8.87-4.66c-25.13,21.74-52.13,41.17-78.66,61.16
				c-5.97,4.23-11.51,9.16-18.07,12.48c2.1-3.57,6-5.33,9.09-7.87C946.88,1532.29,999.13,1491.2,1011.6,1482.13z"/>
			<path class="st23" d="M1064.49,1516.13c6.75-8.48,11.15-18.61,18.36-26.73c-7,12.73-13.04,26.44-23.48,36.85
				c-10.14,10.32-22.37,18.19-34.44,26.03c-31.5,20.32-63.11,40.89-90.89,66.22c-2.15,1.98-4.33,4.03-7.11,5.06
				c3.84-4.74,8.75-8.42,13.13-12.62c24.53-22.02,52.12-40.24,79.44-58.56C1035.42,1541.59,1052.34,1531.39,1064.49,1516.13z"/>
			<path class="st16" d="M1023.08,492.91c-0.15-0.01-0.45-0.04-0.6-0.05l-0.39-0.01c-0.57-0.06-1.14-0.07-1.71-0.05l-0.31-0.01
				l0.01,0.02c-0.68,0.04-1.36,0.14-2.04,0.29c-5.49,0.71-8.7,6.12-11.63,10.29c2.29,1.89,4.51,3.86,6.68,5.91
				c3.03,3.02,8.11,3.22,11.75,1.32c4.45-2.33,7.11-6.81,10.39-10.46C1030.88,498.2,1028.1,493.21,1023.08,492.91z"/>
			<path class="st18" d="M1011.2,502.88c2.2-2.38,4.3-5.62,7.85-5.88c3.87-0.42,7.07,2.14,9.96,4.34
				C1023.05,499.97,1016.85,500.69,1011.2,502.88z"/>
			<path class="st28" d="M1016.7,504.77c3-1.83,6.62-2.26,10.05-1.63C1023.38,503.65,1020.09,504.54,1016.7,504.77z"/>
		</g>
		<path class="st7" d="M960.36,515.1c9.96,14.24,27.75,32.85,58.62,32.44c30.87-0.41,52.34-29.65,52.34-29.65
			s-11.86,24.13-35.98,30.67c-24.13,6.54-43.14,0.61-53.98-6.54C970.52,534.86,960.36,515.1,960.36,515.1z"/>
	</g>
</g>
<g id="label">
</g>
</svg>
