<svg width="33" height="33" viewBox="0 0 33 33" fill="none" xmlns="http://www.w3.org/2000/svg">
<path d="M2.36005 19.4101H9.36005V1.87006H2.36005V19.4101ZM28.6801 10.4901C29.0798 10.4823 29.4609 10.3194 29.7427 10.0357C30.0245 9.75204 30.1849 9.36991 30.1901 8.97009C30.1874 8.57043 30.0275 8.18789 29.7449 7.90527C29.4623 7.62266 29.0797 7.4627 28.6801 7.46008H25.4501C25.2406 7.46008 25.0396 7.37685 24.8914 7.2287C24.7433 7.08054 24.66 6.87963 24.66 6.6701C24.66 6.46058 24.7433 6.2596 24.8914 6.11145C25.0396 5.9633 25.2406 5.88007 25.4501 5.88007H26.35C26.6391 5.89469 26.9255 5.81874 27.1693 5.66278C27.4131 5.50682 27.6022 5.27862 27.7101 5.01007C27.8696 4.58453 27.8696 4.1156 27.7101 3.69006C27.602 3.41884 27.4118 3.18819 27.1661 3.0304C26.9205 2.8726 26.6317 2.79557 26.3401 2.81006H12.3401L10.8801 3.34009V16.5801L16.3901 24.3601C16.5141 24.5048 16.5815 24.6895 16.5801 24.8801V29.8801C16.6134 30.1113 16.7266 30.3236 16.9001 30.4801C17.007 30.5853 17.1362 30.665 17.2781 30.7135C17.4201 30.762 17.5711 30.7779 17.72 30.7601C18.659 30.6051 19.5034 30.0972 20.0801 29.3401C20.7261 28.5305 21.0786 27.5258 21.0801 26.4901V23.3501C21.1264 22.5417 20.8972 21.7415 20.4301 21.0801C20.3304 20.9661 20.2656 20.826 20.2433 20.6763C20.2211 20.5266 20.2423 20.3737 20.3044 20.2357C20.3666 20.0977 20.4671 19.9804 20.5939 19.8979C20.7208 19.8154 20.8687 19.771 21.0201 19.7701H29.7601C30.1668 19.7701 30.5569 19.6092 30.8455 19.3226C31.134 19.0359 31.2974 18.6467 31.3 18.2401C31.3003 18.0377 31.2607 17.8374 31.1835 17.6503C31.1063 17.4633 30.993 17.2933 30.85 17.1501C30.559 16.8641 30.1681 16.7027 29.7601 16.7001H24.0001C23.8895 16.7126 23.7776 16.7016 23.6716 16.6678C23.5656 16.6341 23.468 16.5783 23.385 16.5042C23.3021 16.4301 23.2357 16.3393 23.1902 16.2378C23.1448 16.1363 23.1213 16.0263 23.1213 15.9151C23.1213 15.8039 23.1448 15.6939 23.1902 15.5923C23.2357 15.4908 23.3021 15.4 23.385 15.3259C23.468 15.2518 23.5656 15.196 23.6716 15.1623C23.7776 15.1285 23.8895 15.1176 24.0001 15.1301H29.85C30.2058 15.0718 30.5293 14.8889 30.7628 14.6141C30.9962 14.3394 31.1243 13.9906 31.1243 13.6301C31.1243 13.2695 30.9962 12.9208 30.7628 12.646C30.5293 12.3712 30.2058 12.1884 29.85 12.1301H25.1401C24.9471 12.1083 24.769 12.0162 24.6396 11.8714C24.5103 11.7266 24.4388 11.5392 24.4388 11.3451C24.4388 11.1509 24.5103 10.9636 24.6396 10.8188C24.769 10.674 24.9471 10.5819 25.1401 10.5601L28.6801 10.4901ZM29.0201 5.90009C29.7155 5.98324 30.3631 6.29653 30.86 6.7901C31.3774 7.31192 31.6926 8.00052 31.7494 8.73315C31.8062 9.46578 31.6008 10.1948 31.17 10.7901C31.4776 10.9483 31.7606 11.1504 32.0101 11.3901C31.6341 12.5192 31.5197 13.719 31.6757 14.8987C31.8316 16.0785 32.2536 17.2074 32.91 18.2001C32.9072 19.0244 32.5804 19.8146 32.0001 20.4001C31.7111 20.6888 31.3681 20.9178 30.9906 21.0739C30.6131 21.2301 30.2085 21.3103 29.8 21.3101H22.3901C22.5999 21.9556 22.7013 22.6314 22.6901 23.3101V26.4501C22.6908 27.8401 22.2222 29.1897 21.36 30.2801C20.5342 31.3536 19.328 32.0694 17.9901 32.2801C17.6067 32.3334 17.2162 32.2979 16.8487 32.1766C16.4812 32.0552 16.1463 31.8511 15.8701 31.5801C15.3817 31.1334 15.0904 30.5112 15.0601 29.8501V25.1101L10.9301 19.2801V20.2101C10.9301 20.4196 10.8468 20.6205 10.6987 20.7687C10.5505 20.9168 10.3496 21.0001 10.1401 21.0001H1.58008C1.37056 21.0001 1.16958 20.9168 1.02142 20.7687C0.87327 20.6205 0.790039 20.4196 0.790039 20.2101V1.09009C0.790039 0.880567 0.87327 0.679648 1.02142 0.531494C1.16958 0.38334 1.37056 0.300049 1.58008 0.300049H10.1401C10.3496 0.300049 10.5505 0.38334 10.6987 0.531494C10.8468 0.679648 10.9301 0.880567 10.9301 1.09009V1.6701L11.9901 1.2901C12.0768 1.25908 12.168 1.24215 12.2601 1.24005H26.3401C26.9481 1.21676 27.5481 1.38466 28.0557 1.72009C28.5634 2.05553 28.953 2.54168 29.17 3.11011C29.4765 3.90838 29.4765 4.79182 29.17 5.59009C29.126 5.69621 29.076 5.79971 29.0201 5.90009Z" fill="#CBCFD5"/>
</svg>
